<svg width="80" height="70" viewBox="0 0 80 70" fill="none" xmlns="http://www.w3.org/2000/svg">
<path d="M7.06216 31.8045C7.61422 32.7377 8.91698 32.8832 9.73374 32.103C10.7667 31.1157 10.6946 29.5714 9.57205 28.6386C8.30486 27.5858 6.54337 27.7632 5.43649 29.0683C4.60402 30.05 4.37811 31.1739 4.69133 32.4166C4.72967 32.5682 4.80821 32.6222 4.95281 32.6499C6.53598 32.9562 7.69645 33.8367 8.44392 35.2582C8.534 35.4296 8.63379 35.4874 8.8158 35.4887C9.00567 35.4901 9.19601 35.5469 9.38495 35.479C9.55542 35.479 9.72635 35.4795 9.89682 35.48C10.2756 35.5114 10.6411 35.4116 11.0642 35.37C10.6914 35.5779 10.3292 35.6795 9.96195 35.7673C9.85062 35.7941 9.73235 35.7955 9.63164 35.8592C9.47365 35.8731 9.31566 35.887 9.15766 35.9008C9.05557 35.8565 8.94839 35.881 8.84306 35.8773C8.77377 35.8749 8.71186 35.8985 8.74651 35.9826C8.82643 36.1771 8.81026 36.4002 8.92714 36.5831C8.82966 37.0761 8.81765 37.5722 8.87863 38.0702C8.74004 38.3774 8.6689 38.7101 8.50721 39.0099C7.8064 40.3085 6.73139 41.0934 5.25586 41.146C3.36501 41.2144 1.87931 39.6289 2.00774 37.8411C2.11353 36.3706 3.57382 35.2568 4.96204 35.564C6.07308 35.8098 6.80438 36.9564 6.52258 38.0097C6.24032 39.0653 5.01979 39.6007 4.15175 39.0362C3.68331 38.7313 3.43708 38.279 3.52485 37.7168C3.61078 37.1666 3.90783 36.7356 4.46543 36.5637C5.00362 36.3979 5.4813 36.536 5.87675 36.9444C5.91786 36.9869 5.94142 37.0982 6.02781 37.034C6.10173 36.9786 6.02689 36.9065 5.99871 36.8511C5.52611 35.9133 4.35871 35.6453 3.41814 36.257C2.35145 36.9504 2.10245 38.352 2.84714 39.4705C3.69717 40.7474 5.33809 41.1146 6.69628 40.3196C7.86415 39.6363 8.46748 38.6015 8.52661 37.2562C8.54509 36.8321 8.45223 36.4164 8.31965 36.0117C8.27622 35.8786 8.19538 35.8246 8.05725 35.7964C6.4094 35.4638 5.20735 34.55 4.48298 33.026C4.42801 32.91 4.34485 32.8777 4.23213 32.8592C3.81543 32.7918 3.39781 32.74 2.97187 32.7178C3.21302 32.6231 3.46988 32.5991 3.72581 32.5769C3.83299 32.5677 3.94294 32.5635 4.04873 32.5779C4.27925 32.6088 4.29357 32.5169 4.24645 32.3178C3.79603 30.4172 4.81468 28.4506 6.60527 27.7466C8.40188 27.0402 10.4821 28.16 10.8383 30.025C11.1016 31.4026 10.1255 32.8121 8.7733 33.0084C7.4516 33.2001 6.23801 32.0508 6.43943 30.7974C6.56139 30.0379 7.12037 29.4813 7.87015 29.3722C8.45362 29.2872 9.09068 29.6642 9.33367 30.2389C9.54618 30.7406 9.34569 31.4811 8.9045 31.8262C8.40742 32.2152 7.75466 32.2254 7.25758 31.8512C7.20861 31.8142 7.15779 31.78 7.1079 31.7445C7.09265 31.7181 7.06586 31.6904 7.0423 31.7126C7.01227 31.7412 7.02752 31.7791 7.06124 31.8045H7.06216ZM6.04167 37.1708C6.05876 37.1823 6.0851 37.2073 6.0911 37.2031C6.12113 37.1819 6.11281 37.1509 6.09803 37.1223C6.09664 37.0659 6.08001 37.004 6.01441 37.0451C5.95621 37.0821 6.01488 37.1315 6.04167 37.1708ZM5.07523 33.0551C4.97313 33.0555 4.96759 33.0939 5.05398 33.238C5.68503 34.2885 6.59049 34.9801 7.77175 35.3086C7.83643 35.3266 7.91912 35.3839 7.96578 35.327C8.0263 35.2541 7.93436 35.1885 7.89833 35.1298C7.3435 34.2239 6.55307 33.6053 5.56538 33.2297C5.40046 33.1669 5.2323 33.111 5.07477 33.0551H5.07523Z" fill="white"/>
<path d="M9.89635 35.48C9.72589 35.48 9.55496 35.4796 9.38449 35.4791C10.0137 34.3713 10.958 33.6987 12.215 33.5139C13.9469 33.2593 15.622 34.5418 15.7953 36.2769C15.9593 37.9169 14.6158 39.2234 13.1241 39.1213C12.1263 39.0529 11.2088 38.1239 11.2125 37.1136C11.2171 35.8773 12.3989 35.1049 13.3565 35.4468C13.9839 35.6708 14.3849 36.3056 14.2855 36.9269C14.1756 37.6139 13.6161 38.1419 12.9486 38.1442C12.5042 38.1456 12.1291 37.9585 11.8574 37.5917C11.8172 37.5377 11.7964 37.4651 11.6911 37.4314C11.7576 37.7756 11.9295 38.0366 12.1711 38.2523C12.9772 38.9739 14.207 38.8145 14.9129 37.9012C15.6022 37.0096 15.5227 35.766 14.7549 34.8883C13.5981 33.5652 11.7096 33.61 10.4207 34.8199C10.2147 35.013 10.0017 35.2052 9.89635 35.48Z" fill="#C9C9C9"/>
<path d="M9.1572 35.9013C9.31519 35.8875 9.47319 35.8736 9.63118 35.8597C9.1304 36.9782 9.17106 38.0874 9.71988 39.1725C10.301 40.3219 11.2342 41.0698 12.4446 41.4828C13.1842 41.7351 13.9446 41.8732 14.7258 41.8949C14.7623 41.8959 14.7988 41.9009 14.8607 41.906C14.4468 42.0732 13.6018 42.1301 12.992 42.0127C10.8762 41.6039 9.52585 40.3635 8.96409 38.2758C8.94515 38.2052 8.9567 38.1179 8.87817 38.0707C8.81765 37.5723 8.82966 37.0766 8.92667 36.5832C9.03524 36.3665 9.07912 36.1281 9.1572 35.9009V35.9013Z" fill="#C9C9C9"/>
<path d="M46.1278 35.468C46.3223 34.8799 46.5159 34.2914 46.7117 33.7033C46.7769 33.5074 46.7963 33.2529 46.9321 33.1355C47.0707 33.0159 47.3312 33.123 47.5345 33.0949C47.7863 33.0602 47.8329 33.1655 47.8297 33.397C47.8163 34.2817 47.8205 35.1663 47.8279 36.051C47.8292 36.2132 47.8034 36.2783 47.6195 36.2728C47.1913 36.2603 47.1913 36.2714 47.1913 35.8334C47.1913 35.1733 47.182 34.5136 47.1917 33.8465C46.988 34.4637 46.7843 35.0804 46.581 35.6976C46.5426 35.814 46.4946 35.9291 46.4697 36.0482C46.4341 36.2178 46.3546 36.2806 46.1712 36.2728C45.7758 36.2561 45.7758 36.2681 45.6575 35.8796C45.4718 35.2703 45.2852 34.6614 45.0985 34.0525C45.0814 33.9971 45.0606 33.9426 45.0218 33.8913C45.05 34.5912 45.0315 35.2883 45.0477 35.9845C45.0528 36.2146 45.0001 36.2912 44.7613 36.2737C44.4407 36.2501 44.4393 36.2681 44.4393 35.9383C44.4393 35.0689 44.443 34.1994 44.4361 33.33C44.4347 33.1609 44.461 33.0718 44.6578 33.0949C44.8851 33.1217 45.1706 33.0062 45.329 33.1401C45.4736 33.2626 45.4898 33.5407 45.5559 33.7522C45.7337 34.3237 45.9079 34.8961 46.0839 35.468C46.0987 35.4675 46.1139 35.4671 46.1287 35.4666L46.1278 35.468Z" fill="#C9C9C9"/>
<path d="M49.2031 33.8913C49.2091 34.6115 49.1921 35.3192 49.2031 36.0265C49.2059 36.2094 49.1727 36.2824 48.9694 36.2732C48.597 36.2566 48.5966 36.2695 48.5966 35.8971C48.5966 35.0356 48.6017 34.1735 48.5924 33.3119C48.5906 33.1392 48.6349 33.0773 48.81 33.0957C49.0382 33.1193 49.3274 33.0057 49.4813 33.1392C49.6305 33.2685 49.6485 33.5526 49.7169 33.7711C49.8933 34.3348 50.0656 34.8997 50.2412 35.4694C50.3419 35.4287 50.3313 35.3303 50.3548 35.2596C50.577 34.5976 50.7969 33.9347 51.0067 33.269C51.0492 33.1336 51.1115 33.0879 51.2492 33.0957C51.4488 33.1073 51.6493 33.1018 51.8493 33.0976C51.9473 33.0953 51.9837 33.1304 51.9833 33.2311C51.9805 34.2003 51.9805 35.17 51.9833 36.1392C51.9833 36.2413 51.9486 36.2649 51.8512 36.2709C51.3481 36.3027 51.3481 36.306 51.3485 35.8158C51.349 35.1626 51.3379 34.5089 51.3508 33.8483C51.2404 34.1791 51.1291 34.5094 51.0191 34.8406C50.8815 35.2559 50.736 35.6689 50.6131 36.0884C50.5692 36.2381 50.5017 36.2746 50.3562 36.2723C49.9344 36.2653 49.9354 36.2713 49.8102 35.8634C49.6083 35.206 49.4055 34.5491 49.2031 33.8922V33.8913Z" fill="#C9C9C9"/>
<path d="M76.841 35.4186C76.8322 34.7122 76.859 34.0119 76.8452 33.312C76.8415 33.1355 76.8951 33.0907 77.0655 33.0949C77.4573 33.1036 77.4573 33.0949 77.4573 33.4811C77.4573 34.3426 77.4536 35.2047 77.461 36.0663C77.4624 36.2233 77.4199 36.2534 77.2619 36.2769C76.7703 36.3499 76.4862 36.173 76.27 35.7142C75.9799 35.0994 75.6015 34.526 75.2241 33.8705C75.2241 34.0142 75.2195 34.0913 75.225 34.1676C75.2708 34.7977 75.244 35.4287 75.2564 36.0593C75.2592 36.2095 75.2357 36.2765 75.061 36.2732C74.6517 36.2649 74.6513 36.2751 74.6513 35.8648C74.6513 35.0107 74.655 34.1569 74.6476 33.3027C74.6462 33.1438 74.6938 33.1166 74.8494 33.0902C75.3401 33.0071 75.6103 33.2071 75.8251 33.6437C76.1259 34.2539 76.4987 34.8286 76.8405 35.4181L76.841 35.4186Z" fill="#C9C9C9"/>
<path d="M28.596 33.9287C28.6057 34.6212 28.584 35.3021 28.6002 35.9826C28.6052 36.2071 28.5614 36.2935 28.317 36.2746C27.9941 36.2496 27.9927 36.2686 27.9927 35.9415C27.9927 35.0642 27.9978 34.1874 27.9885 33.3106C27.9867 33.1341 28.0453 33.1156 28.207 33.0907C28.6866 33.0167 28.9554 33.2057 29.1633 33.6381C29.4285 34.1901 29.7694 34.7062 30.0785 35.237C30.1154 35.3003 30.1565 35.3612 30.2318 35.4804C30.1759 34.7223 30.199 34.0322 30.1861 33.3424C30.1829 33.1581 30.2217 33.086 30.4222 33.0939C30.7978 33.1087 30.7982 33.0967 30.7982 33.4736C30.7982 34.3352 30.7931 35.1972 30.8028 36.0588C30.8047 36.2339 30.7493 36.2524 30.5871 36.2773C30.0988 36.3536 29.8244 36.1665 29.6151 35.7202C29.3555 35.1658 29.0132 34.6498 28.7069 34.1176C28.6704 34.0543 28.633 33.992 28.596 33.9291V33.9287Z" fill="#C9C9C9"/>
<path d="M58.3654 35.4819C58.3095 34.7224 58.3321 34.0327 58.3201 33.3434C58.3169 33.1605 58.3529 33.0861 58.5553 33.0939C58.9318 33.1087 58.9322 33.0967 58.9322 33.4728C58.9322 34.3343 58.9276 35.1964 58.9369 36.0579C58.9387 36.2312 58.8865 36.2524 58.7225 36.2778C58.2347 36.3527 57.9593 36.1684 57.7501 35.7212C57.4904 35.1668 57.1486 34.6508 56.8418 34.1186C56.8053 34.0548 56.7675 33.992 56.7106 33.9352C56.7402 34.6291 56.73 35.3174 56.7268 36.0053C56.7268 36.0903 56.7776 36.2326 56.6806 36.2515C56.5111 36.2848 56.3295 36.2649 56.1544 36.2515C56.1151 36.2487 56.1272 36.1711 56.1272 36.1268C56.1267 35.165 56.1281 34.2036 56.1248 33.2418C56.1248 33.1304 56.1623 33.0926 56.2722 33.0972C56.4413 33.1041 56.6113 33.1087 56.7799 33.0958C56.9222 33.0852 56.9998 33.1392 57.0696 33.2616C57.4456 33.9227 57.8304 34.5783 58.2125 35.2356C58.2495 35.2989 58.2906 35.3604 58.3663 35.4814L58.3654 35.4819Z" fill="#C9C9C9"/>
<path d="M40.7435 34.6924C40.7518 34.1653 40.8355 33.6876 41.2591 33.3628C41.7622 32.9775 42.3355 32.9729 42.9032 33.172C43.4317 33.3573 43.6549 33.7975 43.7255 34.3274C43.7879 34.7954 43.7579 35.2546 43.5181 35.6708C43.2155 36.1966 42.5124 36.4308 41.8061 36.2626C41.2004 36.1185 40.8064 35.6399 40.7578 34.9871C40.75 34.8799 40.7472 34.7718 40.7431 34.6924H40.7435ZM43.0497 34.6882C43.0321 34.4947 43.0326 34.3099 42.9725 34.1325C42.8575 33.7925 42.6288 33.6234 42.2676 33.6169C41.8934 33.61 41.6508 33.7721 41.5307 34.1182C41.4194 34.4383 41.4203 34.7658 41.4887 35.0934C41.582 35.5383 41.8569 35.7642 42.2713 35.7484C42.6866 35.7327 42.949 35.4874 43.0164 35.0449C43.0349 34.9238 43.0395 34.8005 43.0497 34.6887V34.6882Z" fill="#C9C9C9"/>
<path d="M71.0022 34.6901C71.0105 34.1602 71.0969 33.6751 71.5339 33.3504C72.0342 32.9794 72.5996 32.9743 73.1596 33.1707C73.688 33.3559 73.9126 33.7948 73.9842 34.3247C74.047 34.7927 74.0174 35.2514 73.7781 35.6685C73.476 36.1952 72.7757 36.4303 72.0675 36.2636C71.4609 36.1204 71.0668 35.6436 71.0165 34.9904C71.0082 34.8832 71.0058 34.7751 71.0017 34.6906L71.0022 34.6901ZM73.3088 34.6892C73.2912 34.4965 73.2921 34.3117 73.2321 34.1343C73.1171 33.7934 72.8898 33.6243 72.5285 33.6174C72.1538 33.61 71.9108 33.7717 71.7903 34.1168C71.6785 34.4365 71.6794 34.7645 71.7478 35.0915C71.8411 35.5373 72.1146 35.7633 72.529 35.7485C72.9438 35.7337 73.2076 35.4884 73.2755 35.0463C73.294 34.9252 73.2986 34.8019 73.3088 34.6892Z" fill="#C9C9C9"/>
<path d="M55.3704 34.2627C55.3704 34.5703 55.3801 34.8789 55.3686 35.1861C55.3469 35.7594 55.0309 36.1401 54.4765 36.263C54.1883 36.3267 53.8949 36.3355 53.6071 36.2551C53.1585 36.1299 52.8758 35.8458 52.8 35.3778C52.7806 35.2568 52.7751 35.133 52.7742 35.0101C52.7714 34.5329 52.7728 34.0557 52.7728 33.5785C52.7728 33.0809 52.7728 33.0869 53.2745 33.0948C53.4205 33.0971 53.4547 33.1465 53.4528 33.2828C53.4459 33.7984 53.45 34.3144 53.45 34.83C53.45 34.9223 53.45 35.0147 53.4542 35.1071C53.4782 35.6435 53.8894 35.9036 54.3837 35.692C54.6544 35.576 54.6992 35.3284 54.7029 35.0766C54.7112 34.4992 54.7168 33.9217 54.7015 33.3447C54.696 33.1373 54.7537 33.0855 54.9556 33.0934C55.3732 33.1091 55.3737 33.0976 55.3737 33.5235V34.2627C55.3737 34.2627 55.3714 34.2627 55.3704 34.2627Z" fill="#C9C9C9"/>
<path d="M66.6638 36.2682C66.4651 36.2682 66.267 36.2654 66.0692 36.2696C65.9861 36.2709 65.938 36.2437 65.9288 36.1573C65.9265 36.1351 65.914 36.1139 65.9062 36.0922C65.8387 35.9069 65.8572 35.6408 65.7033 35.5507C65.5527 35.4625 65.3153 35.5207 65.1157 35.5198C64.5748 35.5179 64.5674 35.517 64.4223 36.0377C64.3743 36.2104 64.3114 36.2996 64.1151 36.2723C63.9645 36.2511 63.8088 36.2682 63.6263 36.2682C63.7335 35.9637 63.8347 35.6782 63.9349 35.3918C64.1844 34.6822 64.4389 33.9745 64.6778 33.2612C64.7272 33.1138 64.7965 33.0806 64.9393 33.0815C65.5588 33.0847 65.5597 33.0801 65.7662 33.664C66.066 34.5104 66.3649 35.3572 66.6633 36.204C66.6679 36.2174 66.6638 36.234 66.6638 36.2682ZM65.1573 33.6114C65.0219 34.0526 64.9064 34.4328 64.7882 34.812C64.7577 34.91 64.7799 34.9553 64.8903 34.9525C65.0594 34.9479 65.2294 34.9442 65.398 34.9539C65.5343 34.9613 65.5717 34.9322 65.5236 34.7899C65.3989 34.4194 65.2899 34.0433 65.1568 33.6118L65.1573 33.6114Z" fill="#C9C9C9"/>
<path d="M26.4012 36.2682C26.1476 36.2682 25.8935 36.2631 25.6399 36.2705C25.5294 36.2737 25.4953 36.2386 25.4957 36.1278C25.4994 35.1664 25.499 34.205 25.4957 33.2437C25.4957 33.1351 25.5285 33.0954 25.6403 33.0968C26.148 33.1014 26.6557 33.1019 27.163 33.0968C27.284 33.0954 27.3173 33.1351 27.32 33.2548C27.3302 33.6507 27.3353 33.6507 26.9445 33.6507C26.737 33.6507 26.5291 33.6493 26.3217 33.6516C26.258 33.6525 26.1693 33.6285 26.167 33.7366C26.1633 33.9135 26.1628 34.0905 26.167 34.2669C26.1693 34.3612 26.2487 34.3418 26.3056 34.3422C26.5592 34.3441 26.8133 34.3496 27.0669 34.3409C27.1967 34.3362 27.2369 34.3769 27.2392 34.5086C27.2452 34.8952 27.2512 34.8952 26.8548 34.8952C26.6779 34.8952 26.501 34.9003 26.324 34.8934C26.2095 34.8888 26.1656 34.9206 26.16 35.0463C26.1286 35.7134 26.1249 35.7134 26.7952 35.7134C26.8719 35.7134 26.9509 35.724 27.0258 35.7115C27.2655 35.6718 27.327 35.7651 27.3265 36.004C27.3265 36.2312 27.2646 36.2945 27.0456 36.2733C26.8322 36.2525 26.6155 36.2687 26.3998 36.2687L26.4012 36.2682Z" fill="#C9C9C9"/>
<path d="M34.4136 34.6974C34.4136 34.2207 34.4173 33.7439 34.4108 33.2671C34.409 33.1373 34.4469 33.0944 34.5794 33.0962C35.0714 33.1031 35.5639 33.1041 36.0559 33.0962C36.1991 33.0939 36.2375 33.1369 36.2365 33.2782C36.2347 33.6506 36.2421 33.6506 35.8605 33.6506C35.6531 33.6506 35.4452 33.6492 35.2378 33.6515C35.174 33.6524 35.0853 33.6284 35.083 33.7365C35.0793 33.9134 35.0788 34.0904 35.083 34.2669C35.0853 34.3611 35.1648 34.3417 35.2216 34.3422C35.4752 34.344 35.7293 34.3495 35.9829 34.3408C36.1127 34.3361 36.1529 34.3768 36.1552 34.5085C36.1612 34.8951 36.1672 34.8951 35.7709 34.8951C35.5939 34.8951 35.417 34.9002 35.2401 34.8933C35.1255 34.8887 35.0821 34.9205 35.0761 35.0462C35.0447 35.7133 35.041 35.7133 35.7113 35.7133C35.788 35.7133 35.867 35.7239 35.9418 35.7114C36.1816 35.6717 36.243 35.765 36.2425 36.0039C36.2425 36.2312 36.1802 36.2829 35.9621 36.2741C35.5015 36.2556 35.0396 36.264 34.5781 36.2713C34.4478 36.2737 34.4081 36.2362 34.4099 36.105C34.4173 35.6361 34.4127 35.1668 34.4127 34.6974H34.4136Z" fill="#C9C9C9"/>
<path d="M19.4878 36.322C19.3432 36.304 19.1972 36.2915 19.054 36.267C18.6128 36.1917 18.525 36.0591 18.5962 35.6152C18.6147 35.4992 18.6664 35.5214 18.7376 35.5509C18.9219 35.6281 19.1085 35.6983 19.3081 35.7283C19.346 35.7339 19.3834 35.7445 19.4213 35.7491C19.7239 35.7838 19.9294 35.6969 19.9863 35.5117C20.044 35.3237 19.9511 35.1865 19.6536 35.0303C19.4499 34.9231 19.2346 34.8377 19.0461 34.7023C18.7043 34.457 18.5736 34.1105 18.672 33.7137C18.7583 33.3649 19.0554 33.1265 19.4624 33.0762C19.8135 33.0327 20.1503 33.0849 20.4806 33.2097C20.6044 33.2563 20.6501 33.2947 20.5891 33.4379C20.4431 33.7811 20.4519 33.7858 20.105 33.6827C19.941 33.6338 19.7747 33.6116 19.6037 33.6301C19.4619 33.6453 19.3566 33.7068 19.3164 33.8532C19.2767 33.9978 19.3243 34.1142 19.4434 34.1941C19.5451 34.262 19.6564 34.3161 19.7636 34.3752C19.9248 34.4644 20.0911 34.5452 20.2473 34.6427C20.584 34.8534 20.7152 35.167 20.651 35.5523C20.585 35.9482 20.3143 36.1598 19.9461 36.2582C19.7982 36.2975 19.6444 36.3206 19.4878 36.322Z" fill="#C9C9C9"/>
<path d="M21.0622 34.7126C21.0432 33.8889 21.4299 33.2925 22.1095 33.1137C22.534 33.002 22.9475 33.0639 23.3508 33.2251C23.4376 33.2597 23.4755 33.3055 23.4275 33.396C23.4169 33.4163 23.4067 33.4371 23.3984 33.4588C23.3091 33.6914 23.1478 33.7671 22.9147 33.6861C22.3451 33.4879 21.9094 33.7254 21.7898 34.3112C21.7339 34.5842 21.7339 34.8637 21.8 35.1363C21.9099 35.5918 22.2194 35.8052 22.6856 35.7437C22.8597 35.7207 23.0316 35.6745 23.2016 35.6287C23.3092 35.6001 23.3466 35.6172 23.3522 35.7396C23.3711 36.1568 23.3406 36.2029 22.9318 36.2699C22.8408 36.2847 22.7493 36.3013 22.6578 36.3074C21.6369 36.3739 21.0876 35.8241 21.0622 34.7131V34.7126Z" fill="#C9C9C9"/>
<path d="M61.0684 34.69C61.0615 33.8705 61.4421 33.2912 62.1152 33.1138C62.5398 33.002 62.9532 33.0634 63.3565 33.2246C63.4425 33.2593 63.4827 33.3041 63.4341 33.3951C63.4235 33.4154 63.4134 33.4362 63.405 33.4579C63.3154 33.6911 63.1542 33.7671 62.9214 33.6861C62.3513 33.488 61.9157 33.7245 61.796 34.3103C61.7401 34.5833 61.7401 34.8628 61.8057 35.1353C61.9152 35.5908 62.2247 35.8047 62.6908 35.7433C62.865 35.7202 63.0369 35.674 63.2073 35.6287C63.314 35.6001 63.3528 35.6153 63.3584 35.7387C63.3773 36.1549 63.3459 36.2025 62.9385 36.2695C62.8474 36.2843 62.756 36.3009 62.6645 36.3069C61.638 36.3739 61.0776 35.8057 61.0684 34.69Z" fill="#C9C9C9"/>
<path d="M37.9255 34.7016C37.9107 33.8686 38.3113 33.2667 39.0038 33.1036C39.4126 33.0075 39.8131 33.0644 40.2016 33.2205C40.2963 33.2588 40.3439 33.3046 40.2857 33.4058C40.2779 33.4191 40.2714 33.433 40.2659 33.4473C40.1753 33.6866 40.0088 33.7652 39.7665 33.6829C39.1969 33.4898 38.7631 33.7328 38.6499 34.3214C38.5972 34.5949 38.5963 34.8739 38.6651 35.1465C38.7774 35.5918 39.0777 35.7978 39.5359 35.7456C39.7189 35.7248 39.9004 35.6907 40.0751 35.6278C40.1684 35.5941 40.2067 35.6144 40.2146 35.7272C40.2428 36.148 40.2044 36.2039 39.7836 36.2714C39.2652 36.354 38.7635 36.3411 38.3556 35.9521C38.0008 35.6135 37.9324 35.1659 37.926 34.7016H37.9255Z" fill="#C9C9C9"/>
<path d="M31.4561 34.6928C31.4478 33.8654 31.8381 33.2773 32.5223 33.1077C32.9395 33.0043 33.3455 33.0662 33.7424 33.2228C33.8491 33.2648 33.8639 33.3226 33.8144 33.414C33.807 33.4274 33.7996 33.4413 33.7941 33.4551C33.7042 33.6901 33.5436 33.7673 33.3123 33.6866C32.7413 33.487 32.3056 33.7217 32.1851 34.3075C32.1273 34.5879 32.1273 34.8748 32.1994 35.1547C32.3112 35.589 32.605 35.7927 33.0531 35.747C33.2365 35.728 33.4181 35.6948 33.5927 35.6315C33.6929 35.5955 33.7396 35.6075 33.7461 35.7359C33.7668 36.16 33.7373 36.2034 33.3058 36.2718C33.2222 36.2852 33.1386 36.3009 33.0545 36.3069C32.028 36.3757 31.4667 35.8089 31.4556 34.6928H31.4561Z" fill="#C9C9C9"/>
<path d="M68.2936 34.9908C68.2936 35.3673 68.2908 35.7443 68.2955 36.1208C68.2969 36.2219 68.2793 36.2663 68.1606 36.2718C67.6224 36.2982 67.6228 36.3032 67.6228 35.76C67.6228 35.1294 67.6178 34.4992 67.6261 33.8687C67.6284 33.7102 67.5868 33.6464 67.4219 33.6608C67.2694 33.6742 67.1137 33.652 66.9613 33.6668C66.7918 33.6829 66.7432 33.6123 66.7636 33.458C66.7714 33.3974 66.7719 33.3342 66.7636 33.2736C66.7428 33.1267 66.8075 33.0939 66.9456 33.0953C67.6219 33.1018 68.2987 33.1013 68.975 33.0953C69.1095 33.0944 69.1815 33.124 69.1603 33.2732C69.1529 33.3258 69.1524 33.3817 69.1603 33.4344C69.1861 33.6118 69.1247 33.6792 68.9358 33.6682C68.7311 33.6561 68.4567 33.5767 68.3361 33.6991C68.204 33.8331 68.3019 34.108 68.2955 34.3209C68.2885 34.5436 68.2941 34.7667 68.2941 34.9899L68.2936 34.9908Z" fill="#C9C9C9"/>
<path d="M24.0655 34.6891C24.0655 34.2198 24.0701 33.7504 24.0627 33.2811C24.0604 33.1434 24.0941 33.0963 24.241 33.0949C24.7326 33.0907 24.7326 33.0843 24.7326 33.5642C24.7326 34.4032 24.7289 35.2417 24.7358 36.0806C24.7372 36.2298 24.6988 36.2737 24.5464 36.2728C24.0655 36.2691 24.0655 36.276 24.0655 35.7974C24.0655 35.4278 24.0655 35.0587 24.0655 34.6891Z" fill="#C9C9C9"/>
<path d="M60.3967 34.697C60.3967 35.1664 60.3921 35.6358 60.3995 36.1051C60.4018 36.2373 60.3602 36.2696 60.2318 36.2714C59.7296 36.2779 59.7296 36.283 59.7296 35.7721C59.7296 34.9488 59.7338 34.1251 59.7259 33.3019C59.7245 33.1421 59.7661 33.0926 59.9301 33.0945C60.3962 33.0996 60.3967 33.0922 60.3967 33.5661C60.3967 33.9431 60.3967 34.3201 60.3967 34.697Z" fill="#C9C9C9"/>
<path d="M69.662 34.6965C69.662 34.2193 69.6661 33.7421 69.6592 33.2653C69.6574 33.1341 69.6994 33.0976 69.8297 33.0953C70.3291 33.0851 70.3291 33.0805 70.3291 33.5794C70.3291 34.4105 70.324 35.2416 70.3332 36.0727C70.3351 36.2395 70.2852 36.275 70.1276 36.2723C69.6624 36.2649 69.662 36.2723 69.662 35.8048C69.662 35.4352 69.662 35.0661 69.662 34.6965Z" fill="#C9C9C9"/>
<path d="M33.3312 27.4159C33.3312 28.3176 33.3331 29.17 33.3284 30.0218C33.3284 30.0934 33.3977 30.22 33.2263 30.2182C33.0549 30.2163 33.1284 30.0888 33.1284 30.0186C33.1233 29.103 33.1238 28.1869 33.1279 27.2713C33.1279 27.1973 33.0716 27.0888 33.1866 27.0518C33.3118 27.0112 33.3783 27.0957 33.4425 27.1927C33.9988 28.0317 34.5582 28.8678 35.1167 29.7049C35.137 29.735 35.1588 29.7645 35.1874 29.8052C35.2419 29.734 35.2151 29.6652 35.2151 29.6028C35.2151 28.8101 35.2119 28.0173 35.2128 27.2251C35.2128 27.1535 35.1657 27.0444 35.3158 27.0467C35.4558 27.0486 35.4262 27.1465 35.4262 27.2255C35.4272 28.1643 35.4281 29.1034 35.4249 30.0422C35.4249 30.1013 35.4711 30.1946 35.3671 30.214C35.2766 30.2311 35.1902 30.2265 35.1324 30.1221C35.0622 29.9946 34.9731 29.8777 34.8922 29.7567C34.3813 28.9907 33.8703 28.2248 33.3312 27.4168V27.4159Z" fill="white"/>
<path d="M49.776 28.6294C49.7668 29.2433 49.6166 29.7922 49.0285 30.1095C48.2284 30.541 47.2578 30.1118 47.0323 29.2327C46.8919 28.6853 46.9053 28.1448 47.188 27.644C47.4772 27.1321 48.0302 26.9173 48.6834 27.0287C49.1828 27.1137 49.5907 27.5216 49.715 28.0575C49.7589 28.2459 49.7769 28.4363 49.776 28.6294ZM49.5358 28.6063C49.5455 28.452 49.5191 28.2769 49.4822 28.1037C49.3713 27.5802 49.0017 27.2592 48.4705 27.2204C47.9022 27.1793 47.4772 27.4356 47.3012 27.9549C47.1381 28.4367 47.1428 28.9273 47.3359 29.3999C47.5105 29.8282 47.8519 30.0292 48.312 30.0425C48.7721 30.0559 49.1436 29.9053 49.3634 29.4799C49.5007 29.2147 49.5399 28.926 49.5358 28.6063Z" fill="white"/>
<path d="M21.1597 28.636C21.1597 28.1897 21.1546 27.7439 21.1643 27.2976C21.1661 27.2131 21.076 27.0546 21.2622 27.0514C21.4701 27.0477 21.3699 27.2209 21.3731 27.3106C21.386 27.6409 21.3828 27.9721 21.3759 28.3024C21.3736 28.4211 21.4077 28.4609 21.5306 28.4595C22.0457 28.453 22.5613 28.4521 23.0764 28.46C23.2076 28.4618 23.2288 28.4114 23.2274 28.2987C23.2224 27.9375 23.2261 27.5757 23.2256 27.2145C23.2256 27.1295 23.2094 27.0417 23.3457 27.0454C23.4732 27.0486 23.4464 27.1355 23.4464 27.2071C23.4473 28.1606 23.4469 29.1146 23.4464 30.0681C23.4464 30.142 23.4681 30.2191 23.3406 30.2201C23.1979 30.2214 23.2261 30.1309 23.2261 30.051C23.2251 29.6588 23.2187 29.2661 23.2288 28.8743C23.233 28.7117 23.1997 28.6457 23.0168 28.6507C22.5405 28.6651 22.0628 28.6651 21.5865 28.6507C21.4031 28.6452 21.3703 28.7117 21.3745 28.8743C21.3846 29.2587 21.38 29.6435 21.3759 30.0279C21.3749 30.106 21.4271 30.2224 21.2622 30.2182C21.0918 30.2141 21.1629 30.0907 21.162 30.0196C21.1555 29.5581 21.1587 29.0966 21.1587 28.635L21.1597 28.636Z" fill="white"/>
<path d="M52.545 30.2043C52.3884 30.2505 52.2923 30.1993 52.212 30.0528C52.0115 29.6897 51.7883 29.3395 51.5841 28.9787C51.5241 28.8725 51.4603 28.8198 51.3333 28.8327C51.1356 28.8526 50.8778 28.7519 50.754 28.8711C50.6297 28.9907 50.7212 29.2499 50.7152 29.4476C50.7087 29.6629 50.711 29.8786 50.7152 30.0944C50.7166 30.1775 50.6995 30.2191 50.6024 30.2205C50.5013 30.2219 50.4939 30.1725 50.4943 30.0935C50.4957 29.1233 50.4962 28.1532 50.4943 27.183C50.4943 27.0893 50.5142 27.044 50.6209 27.0454C50.9596 27.0509 51.2996 27.0324 51.6359 27.081C52.0752 27.1442 52.3321 27.3849 52.3903 27.7711C52.4545 28.1994 52.2776 28.544 51.8673 28.7177C51.7121 28.7838 51.7588 28.8397 51.8142 28.9325C52.0281 29.2878 52.2401 29.6444 52.4508 30.0015C52.4887 30.0657 52.5483 30.1207 52.5455 30.2043H52.545ZM50.7133 27.9379C50.7133 28.1301 50.7129 28.3223 50.7133 28.5144C50.7133 28.5736 50.6995 28.6475 50.796 28.6433C51.1236 28.6295 51.4585 28.6955 51.7754 28.5574C52.0429 28.4405 52.1792 28.2003 52.1574 27.8862C52.1353 27.5669 51.9911 27.3868 51.6932 27.3045C51.4063 27.2251 51.112 27.2657 50.821 27.2533C50.7198 27.2491 50.7115 27.3073 50.7124 27.3845C50.7147 27.5688 50.7133 27.7536 50.7129 27.9379H50.7133Z" fill="white"/>
<path d="M40.7417 30.197C40.5578 30.2515 40.464 30.1956 40.3841 30.0505C40.1836 29.6879 39.96 29.3377 39.7563 28.9764C39.6953 28.8679 39.6288 28.8208 39.5041 28.8328C39.3063 28.8522 39.0472 28.751 38.9252 28.872C38.8033 28.9931 38.8938 29.2518 38.8883 29.45C38.8823 29.6652 38.8841 29.881 38.8883 30.0967C38.8901 30.1822 38.867 30.2187 38.7728 30.2201C38.6684 30.2219 38.667 30.1669 38.6674 30.0907C38.6688 29.1206 38.6693 28.1504 38.6665 27.1803C38.6665 27.0838 38.6924 27.0436 38.7959 27.0454C39.1266 27.051 39.4583 27.0348 39.7877 27.0782C40.2386 27.1373 40.5047 27.3799 40.5629 27.7739C40.6257 28.2022 40.4474 28.5417 40.0381 28.7201C39.9111 28.7755 39.9143 28.8138 39.9757 28.9155C40.2307 29.3345 40.4793 29.7572 40.7417 30.1974V30.197ZM39.3553 27.2542C39.2357 27.2542 39.1354 27.2593 39.0361 27.2528C38.9335 27.2464 38.8832 27.2713 38.885 27.39C38.8915 27.7665 38.8873 28.1435 38.8873 28.5205C38.8873 28.5824 38.8804 28.6484 38.9756 28.6452C39.274 28.6341 39.5766 28.6817 39.8695 28.5921C40.1716 28.4997 40.3388 28.2562 40.3338 27.9278C40.3287 27.5831 40.1712 27.3873 39.8395 27.2981C39.6727 27.2533 39.5041 27.2616 39.3553 27.2551V27.2542Z" fill="white"/>
<path d="M24.3473 28.6225C24.3473 28.1532 24.3514 27.6838 24.3445 27.2144C24.3426 27.0874 24.375 27.0417 24.5099 27.044C24.9792 27.0518 25.4486 27.0467 25.918 27.0472C25.9923 27.0472 26.0732 27.0283 26.0746 27.1535C26.0764 27.2828 25.9914 27.256 25.9203 27.2565C25.5202 27.2574 25.1201 27.2611 24.7201 27.2546C24.6027 27.2528 24.5593 27.2819 24.5635 27.4066C24.5722 27.6986 24.5746 27.9915 24.5635 28.2834C24.5575 28.4368 24.6231 28.459 24.7543 28.4562C25.1081 28.4488 25.462 28.4521 25.8163 28.4553C25.8893 28.4557 25.996 28.41 25.99 28.5611C25.985 28.6974 25.8879 28.6498 25.8237 28.6507C25.462 28.6544 25.1003 28.6576 24.739 28.6498C24.612 28.647 24.5621 28.6807 24.5649 28.8152C24.5727 29.1612 24.5732 29.5077 24.5649 29.8537C24.5612 29.9941 24.6217 30.0181 24.7432 30.0163C25.1354 30.0103 25.5281 30.0135 25.9203 30.0144C25.9933 30.0144 26.076 29.9904 26.0764 30.1188C26.0764 30.2537 25.9854 30.2149 25.9189 30.2154C25.4495 30.2177 24.9802 30.2117 24.5108 30.2196C24.3787 30.2219 24.344 30.1831 24.3459 30.0532C24.3533 29.5765 24.3487 29.0993 24.3487 28.6221L24.3473 28.6225Z" fill="white"/>
<path d="M41.3016 28.6355C41.3016 28.1661 41.3062 27.6967 41.2988 27.2274C41.2965 27.0911 41.3256 27.0398 41.4748 27.0435C41.9363 27.0537 42.3983 27.0468 42.8598 27.0477C42.9411 27.0477 43.0335 27.0232 43.0294 27.1641C43.0252 27.3004 42.9296 27.2551 42.8654 27.2556C42.4731 27.2588 42.0805 27.2616 41.6883 27.2546C41.5635 27.2523 41.5127 27.2796 41.5178 27.4168C41.5284 27.7009 41.5298 27.9864 41.5178 28.2705C41.5109 28.4304 41.5751 28.4608 41.7188 28.4567C42.0569 28.4474 42.396 28.4484 42.7342 28.4581C42.8044 28.4599 42.9356 28.3786 42.942 28.5482C42.9485 28.7191 42.8169 28.6479 42.7443 28.6493C42.3983 28.6563 42.0518 28.6581 41.7058 28.6493C41.5709 28.6461 41.5136 28.6757 41.5178 28.8249C41.528 29.163 41.528 29.5021 41.5178 29.8403C41.5132 29.9895 41.5732 30.0186 41.7067 30.0163C42.0916 30.0089 42.4764 30.0131 42.8607 30.014C42.9407 30.014 43.0354 29.9863 43.0289 30.1286C43.0229 30.2685 42.9226 30.2131 42.8617 30.2136C42.3923 30.2182 41.9229 30.2117 41.4536 30.2191C41.3325 30.221 41.297 30.1882 41.2988 30.0662C41.3057 29.589 41.3016 29.1122 41.3016 28.635V28.6355Z" fill="white"/>
<path d="M30.6763 28.6336C30.6763 28.1643 30.6813 27.6949 30.673 27.2255C30.6707 27.086 30.7054 27.0407 30.8509 27.0435C31.3124 27.0532 31.7744 27.0472 32.2359 27.0472C32.319 27.0472 32.4087 27.0269 32.4031 27.1659C32.3976 27.3031 32.3006 27.2542 32.2373 27.2551C31.845 27.2593 31.4524 27.262 31.0602 27.2542C30.9322 27.2519 30.8869 27.2842 30.892 27.4186C30.9026 27.6954 30.9035 27.973 30.892 28.2493C30.8855 28.4068 30.928 28.4636 31.0948 28.4571C31.4482 28.4442 31.8025 28.4516 32.1564 28.4544C32.2229 28.4548 32.3163 28.4146 32.3186 28.5491C32.3209 28.6807 32.2336 28.6507 32.1624 28.6507C31.8007 28.6521 31.439 28.6572 31.0777 28.6484C30.9396 28.6452 30.8878 28.6803 30.892 28.8263C30.9017 29.1644 30.9022 29.5035 30.892 29.8417C30.8874 29.9941 30.9525 30.0177 31.0828 30.0154C31.4676 30.0089 31.8524 30.0126 32.2368 30.0131C32.3181 30.0131 32.411 29.989 32.4031 30.1299C32.3948 30.269 32.2945 30.2122 32.234 30.2131C31.7647 30.2177 31.2953 30.2108 30.8259 30.2191C30.7007 30.2214 30.6721 30.1817 30.6735 30.0639C30.6795 29.5867 30.6758 29.1099 30.6758 28.6327L30.6763 28.6336Z" fill="white"/>
<path d="M44.905 28.6364C44.905 28.167 44.9096 27.6977 44.9022 27.2283C44.8999 27.0929 44.9267 27.0398 45.0773 27.0435C45.5466 27.0537 46.016 27.0477 46.4854 27.0467C46.5653 27.0467 46.6364 27.0361 46.6364 27.1576C46.6364 27.2907 46.5473 27.256 46.4784 27.2565C46.0784 27.2583 45.6778 27.2616 45.2778 27.2546C45.16 27.2528 45.1179 27.2824 45.1212 27.4066C45.1295 27.7526 45.129 28.0991 45.1212 28.4456C45.1184 28.568 45.1581 28.6017 45.2778 28.5994C45.6469 28.5925 46.0165 28.5948 46.386 28.599C46.4498 28.5994 46.5477 28.5518 46.5523 28.6881C46.5574 28.8327 46.4581 28.7995 46.38 28.7995C46.0262 28.8009 45.6718 28.8069 45.318 28.7972C45.1701 28.793 45.1156 28.8332 45.1202 28.9884C45.1304 29.3423 45.1244 29.6962 45.123 30.0505C45.123 30.1286 45.154 30.2219 45.0098 30.2205C44.8588 30.2196 44.9068 30.1165 44.9063 30.0454C44.9031 29.576 44.9045 29.1067 44.9045 28.6373L44.905 28.6364Z" fill="white"/>
<path d="M29.2866 27.0052C29.5019 27.0139 29.7181 27.0236 29.9209 27.104C29.9921 27.1322 30.1311 27.1137 30.0785 27.2676C30.029 27.4131 29.9403 27.3359 29.859 27.3064C29.5708 27.2015 29.2742 27.1724 28.9757 27.2435C28.3461 27.3932 27.9834 27.9393 28.0213 28.6821C28.0481 29.2097 28.171 29.6957 28.7083 29.941C29.0501 30.0971 29.4114 30.056 29.7722 30.0047C29.8382 29.9955 29.9528 29.8782 29.9935 30.0352C30.0337 30.1914 29.8891 30.1868 29.805 30.2015C29.2636 30.2967 28.7212 30.3314 28.2772 29.9281C27.7839 29.4799 27.7192 28.8882 27.8143 28.2728C27.9386 27.4667 28.4833 27.0093 29.2866 27.0047V27.0052Z" fill="white"/>
<path d="M37.1845 28.7496C37.1845 29.1796 37.1864 29.6102 37.1827 30.0403C37.1822 30.1128 37.2275 30.2135 37.0792 30.22C36.9143 30.2274 36.9618 30.1156 36.9618 30.0357C36.9595 29.175 36.9558 28.3144 36.9646 27.4542C36.9665 27.2902 36.9193 27.2468 36.7613 27.256C36.5317 27.2694 36.3008 27.2606 36.0702 27.2588C36.0069 27.2583 35.9279 27.2842 35.9247 27.1691C35.9219 27.0583 35.9806 27.0463 36.0693 27.0463C36.7378 27.0481 37.4063 27.0481 38.0747 27.0463C38.1644 27.0463 38.2184 27.0606 38.2152 27.171C38.2119 27.2897 38.1306 27.2578 38.0701 27.2588C37.8243 27.2615 37.5781 27.2666 37.3328 27.2574C37.2081 27.2523 37.1799 27.2957 37.1813 27.4135C37.1877 27.8589 37.184 28.3047 37.184 28.7505L37.1845 28.7496Z" fill="white"/>
<path d="M19.4518 28.7325C19.4518 28.3024 19.4439 27.8718 19.4559 27.4417C19.4605 27.2837 19.407 27.25 19.2633 27.2565C19.0254 27.2671 18.787 27.2583 18.5491 27.2597C18.4756 27.2597 18.4123 27.2625 18.416 27.1558C18.4193 27.0578 18.4719 27.0458 18.5505 27.0463C19.2268 27.0477 19.9026 27.0477 20.579 27.0463C20.6598 27.0463 20.7056 27.0624 20.7074 27.1599C20.7092 27.2717 20.6409 27.2592 20.5725 27.2592C20.3341 27.2592 20.0953 27.2699 19.8583 27.2555C19.7003 27.2458 19.6717 27.3036 19.6726 27.4482C19.6791 28.3088 19.6767 29.1695 19.6735 30.0297C19.6735 30.0907 19.7174 30.1817 19.6255 30.2094C19.5146 30.2427 19.4448 30.22 19.4481 30.069C19.4582 29.6236 19.4518 29.1778 19.4518 28.732V28.7325Z" fill="white"/>
<path d="M32.2636 41.9698C32.2636 42.4124 32.2659 42.8106 32.2613 43.2083C32.2604 43.2772 32.3153 43.3853 32.162 43.3867C32.0155 43.388 32.052 43.2892 32.052 43.213C32.0506 42.1902 32.0497 41.1669 32.0539 40.1441C32.0539 40.0822 31.9975 39.9796 32.1278 39.9639C32.2636 39.9478 32.246 40.0498 32.2562 40.1302C32.2608 40.1677 32.2636 40.2051 32.2668 40.2406C32.3463 40.2753 32.3611 40.2023 32.3948 40.1704C32.8826 39.7029 33.7234 39.8951 33.9442 40.5321C34.0764 40.9133 34.0768 41.3069 33.9609 41.6898C33.7077 42.5256 32.6872 42.5394 32.2636 41.9698ZM32.2553 41.1244C32.2701 41.2574 32.2811 41.403 32.3038 41.5471C32.3657 41.9407 32.5662 42.1287 32.957 42.1675C33.3215 42.204 33.6033 42.0299 33.7271 41.6797C33.8269 41.3979 33.8241 41.1068 33.783 40.8139C33.7207 40.3695 33.4698 40.1228 33.0674 40.1141C32.6142 40.1039 32.368 40.3173 32.2922 40.7899C32.2751 40.8957 32.2682 41.0034 32.2553 41.1239V41.1244Z" fill="white"/>
<path d="M24.7168 40.7493C24.7168 40.2721 24.7205 39.7949 24.7141 39.3181C24.7122 39.1906 24.7441 39.1412 24.8795 39.1481C25.171 39.1638 25.4648 39.1523 25.7553 39.1749C26.2954 39.2165 26.5989 39.5191 26.6183 40.0115C26.6386 40.5229 26.3444 40.886 25.8191 40.9724C25.6154 41.0061 25.4038 41.0274 25.1991 41.0103C24.9654 40.9909 24.915 41.0759 24.9303 41.2907C24.9497 41.5665 24.9395 41.8446 24.9317 42.1213C24.9298 42.1948 24.9991 42.3181 24.83 42.3223C24.6425 42.3265 24.7205 42.1883 24.7191 42.1116C24.7122 41.6575 24.7159 41.2039 24.7159 40.7497L24.7168 40.7493ZM25.3858 39.3578C25.2638 39.3578 25.1636 39.3634 25.0642 39.3564C24.9635 39.3495 24.933 39.3883 24.934 39.4876C24.9386 39.8872 24.9363 40.2869 24.9353 40.6865C24.9353 40.7631 24.9432 40.8246 25.0435 40.8227C25.3271 40.8177 25.6126 40.8357 25.8898 40.7548C26.2247 40.6569 26.3846 40.4328 26.3822 40.0697C26.3799 39.7122 26.2104 39.4964 25.8671 39.4017C25.7008 39.356 25.5322 39.3638 25.3858 39.3583V39.3578Z" fill="white"/>
<path d="M40.701 40.7493C40.701 40.2721 40.7047 39.7949 40.6983 39.3181C40.6964 39.1906 40.7283 39.1412 40.8636 39.1481C41.1551 39.1638 41.449 39.1523 41.7395 39.1749C42.2796 39.2165 42.5831 39.5191 42.6025 40.0115C42.6228 40.5234 42.3286 40.886 41.8033 40.9724C41.5996 41.0061 41.388 41.0274 41.1833 41.0103C40.95 40.9909 40.8992 41.0759 40.9145 41.2907C40.9339 41.5665 40.9237 41.8446 40.9158 42.1213C40.914 42.1948 40.9833 42.3181 40.8142 42.3223C40.6267 42.3265 40.7047 42.1883 40.7033 42.1116C40.6964 41.6575 40.7001 41.2039 40.7001 40.7497L40.701 40.7493ZM40.92 40.0748C40.92 40.2748 40.9242 40.4744 40.9186 40.674C40.9158 40.7807 40.9491 40.8301 41.0623 40.8227C41.2997 40.807 41.5409 40.8177 41.7746 40.7807C42.1692 40.7183 42.3632 40.4735 42.3674 40.0808C42.3711 39.6997 42.1881 39.4747 41.7954 39.3906C41.6915 39.3685 41.5825 39.3625 41.4758 39.3597C41.1059 39.3498 40.9208 39.5266 40.9205 39.89C40.9205 39.9515 40.9205 40.0129 40.9205 40.0743L40.92 40.0748Z" fill="white"/>
<path d="M52.0119 41.9656C51.737 42.2987 51.4012 42.4252 50.9965 42.3361C50.7041 42.2719 50.5373 42.0945 50.5013 41.8302C50.4578 41.5115 50.5664 41.2745 50.8279 41.1285C51.1365 40.9562 51.4802 40.9488 51.8165 40.9539C52.0392 40.9571 52.065 40.8735 52.0456 40.6855C52.0004 40.2452 51.768 40.0535 51.331 40.1214C51.1868 40.144 51.0436 40.1754 50.9124 40.2429C50.8422 40.2789 50.7932 40.2974 50.753 40.2004C50.7193 40.1182 50.7535 40.0863 50.8182 40.0623C51.1323 39.9449 51.452 39.8701 51.7869 39.9652C52.0812 40.0489 52.2447 40.2854 52.254 40.6804C52.2655 41.1807 52.2595 41.681 52.2581 42.1813C52.2581 42.2326 52.296 42.3111 52.1916 42.3204C52.09 42.3292 52.0826 42.264 52.0766 42.1896C52.071 42.1217 52.0766 42.0501 52.0124 41.9656H52.0119ZM52.0383 41.3387C51.9944 41.2902 52.1006 41.1317 51.9773 41.1331C51.6049 41.1382 51.215 41.1063 50.8842 41.3322C50.7092 41.4519 50.7004 41.6431 50.7397 41.8325C50.7761 42.0085 50.8967 42.1033 51.07 42.1411C51.6146 42.2599 52.0193 41.936 52.0387 41.3387H52.0383Z" fill="white"/>
<path d="M48.7153 41.9361C48.4169 42.2913 48.0833 42.4258 47.6782 42.3389C47.3853 42.2765 47.2144 42.1001 47.176 41.8386C47.1275 41.5097 47.2398 41.2727 47.5156 41.1221C47.8112 40.9604 48.1383 40.9525 48.4594 40.9544C48.6811 40.9558 48.7504 40.8994 48.7204 40.6707C48.6663 40.254 48.4511 40.0651 48.0357 40.1182C47.8754 40.1385 47.7174 40.1755 47.5728 40.2494C47.5059 40.2836 47.4684 40.285 47.4319 40.2078C47.3968 40.133 47.4139 40.0928 47.4851 40.066C47.814 39.9413 48.1498 39.8627 48.4972 39.9768C48.7832 40.0706 48.9079 40.3058 48.9186 40.5806C48.9394 41.1262 48.9301 41.6732 48.9338 42.2197C48.9338 42.2788 48.9306 42.325 48.8502 42.3213C48.7809 42.3181 48.7583 42.2839 48.7532 42.2206C48.7467 42.1453 48.7338 42.07 48.7153 41.9361ZM48.7121 41.3461C48.682 41.2851 48.7721 41.1318 48.6488 41.1332C48.2834 41.1369 47.9032 41.1114 47.5742 41.3198C47.3853 41.4394 47.3719 41.6367 47.4135 41.8349C47.4504 42.0104 47.5719 42.1047 47.7452 42.1416C48.2903 42.2585 48.6931 41.9347 48.7116 41.3461H48.7121Z" fill="white"/>
<path d="M36.0314 41.9637C35.757 42.294 35.4221 42.4247 35.0174 42.3374C34.7245 42.2746 34.555 42.0977 34.5175 41.8353C34.4704 41.5059 34.5831 41.2712 34.8599 41.1206C35.1486 40.9631 35.4674 40.9677 35.781 40.9497C36.0836 40.9326 36.0836 40.9358 36.055 40.6452C36.0171 40.2623 35.8046 40.0826 35.4207 40.114C35.2438 40.1288 35.071 40.1703 34.9121 40.2503C34.8409 40.2863 34.8077 40.277 34.7726 40.205C34.7351 40.1283 34.7605 40.0904 34.8294 40.0645C35.1588 39.9407 35.4946 39.8622 35.8416 39.9777C36.1271 40.0729 36.2499 40.3089 36.2606 40.5833C36.2809 41.1294 36.2721 41.6759 36.2749 42.2224C36.2749 42.2663 36.2841 42.319 36.2125 42.3199C36.1548 42.3203 36.1063 42.3157 36.0975 42.2409C36.0873 42.1582 36.0989 42.0704 36.0319 41.9642L36.0314 41.9637ZM36.0536 41.3521C36.0143 41.2915 36.1354 41.1303 35.9746 41.1308C35.6383 41.1312 35.2937 41.1261 34.98 41.2786C34.7726 41.3793 34.7171 41.5627 34.7471 41.7826C34.7758 41.9951 34.9001 42.1037 35.1038 42.1439C35.642 42.2492 36.0342 41.9309 36.0541 41.3521H36.0536Z" fill="white"/>
<path d="M28.6339 41.9717C28.414 42.2452 28.1266 42.3819 27.7737 42.362C27.3131 42.3362 27.0567 42.0239 27.1269 41.5712C27.1685 41.3055 27.3491 41.1609 27.5824 41.0681C27.8827 40.9484 28.2015 40.9567 28.5156 40.9475C28.6501 40.9438 28.6801 40.8999 28.6755 40.7719C28.6561 40.2402 28.408 40.0397 27.8813 40.1358C27.7515 40.1594 27.6273 40.1977 27.5099 40.2536C27.4471 40.2836 27.4152 40.2804 27.3879 40.2139C27.3667 40.1626 27.332 40.1109 27.4069 40.0804C27.7626 39.9367 28.1262 39.8415 28.5008 40.0023C28.8311 40.1441 28.876 40.4463 28.881 40.7544C28.8889 41.2164 28.8861 41.6783 28.8806 42.1398C28.8797 42.1999 28.9425 42.3062 28.8099 42.3177C28.6861 42.3288 28.711 42.2299 28.6995 42.1592C28.6898 42.1001 28.699 42.0354 28.6343 41.9703L28.6339 41.9717ZM28.4847 41.1157C28.1502 41.1618 27.8767 41.1457 27.6245 41.2598C27.4055 41.3586 27.3274 41.5319 27.3533 41.7652C27.3782 41.9879 27.503 42.1038 27.7178 42.1445C28.2472 42.2452 28.6348 41.932 28.663 41.3864C28.6727 41.2007 28.6671 41.0533 28.4847 41.1157Z" fill="white"/>
<path d="M38.7072 42.0294C38.7644 42.1772 38.7048 42.2373 38.5935 42.2696C38.2789 42.3611 37.9615 42.4036 37.6395 42.3154C37.4252 42.2567 37.2515 42.1375 37.1221 41.9536C36.8117 41.5134 36.8413 40.6754 37.1836 40.2605C37.4257 39.9672 37.8299 39.8494 38.2064 39.963C38.5445 40.0646 38.776 40.3843 38.8162 40.8052C38.8396 41.0488 38.7326 41.1706 38.4951 41.1706C38.1029 41.1706 37.7107 41.1789 37.3189 41.1664C37.1563 41.1614 37.1318 41.2163 37.1452 41.3623C37.1947 41.8839 37.5194 42.18 38.0498 42.1689C38.2743 42.1638 38.4905 42.1126 38.7076 42.0299L38.7072 42.0294ZM37.859 40.9798C38.0586 40.9798 38.2581 40.9821 38.4572 40.978C38.5076 40.977 38.5732 41.0131 38.5926 40.9087C38.6697 40.4929 38.2757 40.0679 37.8484 40.1155C37.4714 40.1575 37.1896 40.467 37.1559 40.8597C37.1462 40.9743 37.1933 40.983 37.2834 40.9812C37.4751 40.9766 37.6668 40.9798 37.859 40.9798Z" fill="white"/>
<path d="M30.5303 41.1701C30.2998 41.1701 30.0688 41.1752 29.8382 41.1678C29.726 41.1641 29.6992 41.1987 29.7034 41.3114C29.7228 41.8399 30.0535 42.1689 30.5843 42.1684C30.7774 42.1684 30.9664 42.1328 31.1502 42.0723C31.1951 42.0575 31.2565 41.997 31.2847 42.0714C31.3059 42.1268 31.3092 42.1929 31.2246 42.2432C30.5635 42.6345 29.6548 42.2585 29.5038 41.5147C29.4377 41.1881 29.4493 40.8569 29.5809 40.5409C29.7616 40.1062 30.1561 39.8706 30.607 39.9265C31.0269 39.9787 31.3161 40.2988 31.3757 40.7779C31.3785 40.8005 31.3785 40.8241 31.3798 40.8467C31.3931 41.0623 31.2945 41.1701 31.0842 41.1701C30.8999 41.1701 30.7151 41.1701 30.5307 41.1701H30.5303ZM30.4166 40.9798C30.6236 40.9798 30.831 40.9798 31.038 40.9798C31.1004 40.9798 31.1549 40.9881 31.153 40.8892C31.1442 40.4425 30.8643 40.0045 30.3016 40.1371C29.944 40.2217 29.8041 40.4878 29.7265 40.8097C29.6978 40.9289 29.7144 40.9936 29.8641 40.9825C30.0475 40.9691 30.2323 40.9793 30.4162 40.9793L30.4166 40.9798Z" fill="white"/>
<path d="M22.7692 42.028C22.8255 42.1781 22.765 42.2377 22.6541 42.2696C22.3474 42.3578 22.0383 42.4008 21.7223 42.3204C21.4895 42.2608 21.3052 42.1343 21.1703 41.9338C20.8728 41.4921 20.9088 40.6675 21.2461 40.26C21.4881 39.9671 21.8928 39.8498 22.2693 39.9635C22.6066 40.0655 22.838 40.3862 22.8782 40.8065C22.9013 41.0495 22.794 41.171 22.5562 41.171C22.164 41.171 21.7718 41.1798 21.38 41.1669C21.2146 41.1613 21.1943 41.2205 21.2077 41.3641C21.2571 41.8857 21.5824 42.1814 22.1132 42.1694C22.3377 42.1643 22.5534 42.113 22.7701 42.0294L22.7692 42.028ZM21.9196 40.9798C22.1192 40.9798 22.3188 40.9826 22.5179 40.9779C22.5678 40.977 22.6347 41.0144 22.6541 40.9096C22.7225 40.5437 22.3848 40.1224 22.0028 40.1108C21.5935 40.0983 21.2174 40.4712 21.2156 40.8819C21.2156 40.9705 21.2488 40.9816 21.3209 40.9807C21.5205 40.9779 21.72 40.9798 21.9191 40.9798H21.9196Z" fill="white"/>
<path d="M52.8924 41.1216C52.8786 40.272 53.4556 39.7601 54.2266 39.9597C54.5232 40.0364 54.7288 40.2203 54.8457 40.4961C55.0147 40.8947 55.017 41.3064 54.8771 41.7106C54.7168 42.1735 54.2747 42.4252 53.7822 42.3578C53.3151 42.294 52.959 41.9023 52.91 41.3974C52.9017 41.3133 52.8994 41.2287 52.8924 41.1211V41.1216ZM53.1054 41.1447C53.1285 41.2883 53.1377 41.4357 53.177 41.5748C53.2851 41.9591 53.5549 42.1665 53.9273 42.1679C54.2996 42.1693 54.5754 41.961 54.6853 41.5812C54.7703 41.2874 54.7713 40.9885 54.684 40.6952C54.5717 40.3182 54.2945 40.1122 53.9203 40.1154C53.5434 40.1186 53.2782 40.3242 53.1733 40.7109C53.1354 40.8504 53.1276 40.9978 53.1054 41.1451V41.1447Z" fill="white"/>
<path d="M44.8246 42.015C44.528 42.343 44.1755 42.4072 43.7948 42.3407C43.4382 42.2783 43.2326 42.0524 43.216 41.6676C43.1934 41.1377 43.2072 40.606 43.204 40.0747C43.204 40.0059 43.2086 39.962 43.3001 39.9606C43.4128 39.9588 43.422 40.0161 43.4216 40.1038C43.4193 40.5196 43.4193 40.9349 43.4216 41.3507C43.422 41.4736 43.4225 41.5983 43.4419 41.7189C43.4793 41.9545 43.6124 42.1005 43.8572 42.1485C44.4227 42.2598 44.801 41.9859 44.8301 41.4107C44.8514 40.9885 44.8398 40.5644 44.8468 40.1417C44.8481 40.0692 44.8024 39.9662 44.9498 39.9615C45.1004 39.9569 45.056 40.0604 45.056 40.1329C45.0583 40.7949 45.0597 41.4565 45.0542 42.1185C45.0537 42.1855 45.1226 42.2982 44.9835 42.3194C44.8218 42.3439 44.8809 42.2095 44.8569 42.1356C44.8477 42.1069 44.8412 42.0774 44.8246 42.0155V42.015Z" fill="white"/>
<path d="M19.6758 40.8551C19.6758 41.2778 19.6786 41.7005 19.6731 42.1227C19.6721 42.1971 19.7359 42.3172 19.5691 42.3223C19.382 42.3278 19.4559 42.192 19.4555 42.1144C19.4508 41.2694 19.4458 40.424 19.4573 39.5791C19.4601 39.3911 19.4 39.349 19.2286 39.3597C19.0069 39.3735 18.7833 39.3638 18.5602 39.3624C18.4959 39.362 18.4188 39.3851 18.4165 39.2705C18.4142 39.1578 18.4765 39.1495 18.5634 39.1499C19.2319 39.1513 19.9003 39.1518 20.5688 39.1499C20.6603 39.1499 20.7111 39.1684 20.7074 39.2765C20.7032 39.3957 20.6206 39.361 20.561 39.362C20.323 39.3652 20.0842 39.3735 19.8468 39.3597C19.6966 39.3509 19.6707 39.4063 19.6735 39.5417C19.6818 39.9796 19.6767 40.4176 19.6767 40.8555L19.6758 40.8551Z" fill="white"/>
<path d="M46.5075 42.3642C46.1019 42.3624 45.895 42.1767 45.8839 41.7895C45.8705 41.3202 45.8719 40.8504 45.8788 40.381C45.8811 40.2193 45.8635 40.1154 45.664 40.1477C45.6182 40.1551 45.5305 40.192 45.5226 40.0876C45.518 40.028 45.561 40.0068 45.6108 40.0045C45.8774 39.9934 45.9074 39.7989 45.9398 39.5961C45.9504 39.5287 45.9338 39.4081 46.0266 39.409C46.1453 39.4104 46.0867 39.5287 46.0885 39.5933C46.0978 39.9638 46.0955 39.9546 46.4623 39.9698C46.5667 39.974 46.7695 39.8617 46.7681 40.0645C46.7667 40.2512 46.5713 40.1408 46.4715 40.1449C46.0918 40.1602 46.0894 40.1509 46.0918 40.5381C46.0945 40.9381 46.0881 41.3387 46.1102 41.7378C46.1292 42.0838 46.2789 42.1891 46.6221 42.1739C46.6909 42.1707 46.8198 42.0524 46.8402 42.2182C46.8586 42.3712 46.7062 42.3263 46.6235 42.3555C46.5819 42.3702 46.532 42.3624 46.5075 42.3638V42.3642Z" fill="white"/>
<path d="M49.9109 41.142C49.9109 41.4884 49.9113 41.8344 49.9104 42.1809C49.9104 42.2456 49.9331 42.3195 49.8185 42.3232C49.7058 42.3269 49.6974 42.271 49.6979 42.1823C49.7002 41.4898 49.6998 40.7969 49.6979 40.1044C49.6979 40.0189 49.7011 39.9575 49.8166 39.9612C49.9303 39.9649 49.91 40.0374 49.9104 40.103C49.9113 40.4495 49.9104 40.7955 49.9104 41.142H49.9109Z" fill="white"/>
<path d="M44.1543 39.4085C44.4074 39.4085 44.6606 39.4095 44.9137 39.4081C44.9932 39.4081 45.0602 39.3984 45.0597 39.5199C45.0593 39.6289 45.0163 39.6432 44.9239 39.6427C44.395 39.6395 43.8655 39.6391 43.3366 39.6427C43.2419 39.6432 43.2035 39.6247 43.2021 39.518C43.2012 39.3947 43.2719 39.4076 43.3495 39.4081C43.6179 39.409 43.8863 39.4081 44.1547 39.4081L44.1543 39.4085Z" fill="white"/>
<path d="M49.9497 39.3199C49.9377 39.4086 49.9284 39.5125 49.8032 39.5107C49.6748 39.5088 49.6725 39.4044 49.6716 39.3097C49.6707 39.2118 49.6845 39.1097 49.8083 39.1129C49.927 39.1162 49.9432 39.2183 49.9492 39.3199H49.9497Z" fill="white"/>
<path d="M6.09741 37.1223C6.11202 37.1506 6.12025 37.1812 6.09055 37.2022C6.08461 37.2063 6.05857 37.1816 6.04167 37.1702C6.0604 37.1542 6.07868 37.1382 6.09741 37.1223Z" fill="black"/>
</svg>
