<svg width="50" height="50" viewBox="0 0 50 50" fill="none" xmlns="http://www.w3.org/2000/svg">
<path d="M4.08244 25H3L7.69606 37H8.81347L13.526 25H12.4621L8.28975 35.7965H8.25477L4.08244 25ZM16.122 25.7085C16.122 25.3024 15.7721 25.014 15.4058 25.014C15.057 25.014 14.7072 25.3024 14.7072 25.7085C14.7072 26.1147 15.057 26.4021 15.4058 26.4021C15.7721 26.4021 16.122 26.1147 16.122 25.7085ZM15.8956 28.7003H14.9346V37H15.8956V28.7003ZM23.3451 30.0405C22.8224 29.1773 21.7945 28.7023 20.6102 28.7023C19.1995 28.7023 17.8403 29.3799 17.8403 30.9037C17.8403 33.8326 22.561 32.5283 22.561 34.6788C22.561 35.7796 21.5681 36.2196 20.5577 36.2196C19.5648 36.2196 18.6933 35.7107 18.2231 35.0012L17.475 35.5251C18.1716 36.524 19.3374 36.998 20.5577 36.998C22.0383 36.998 23.5015 36.2875 23.5015 34.611C23.5015 33.3247 22.5086 32.7149 20.7851 32.3417C19.4434 32.0543 18.7458 31.7499 18.7458 30.8358C18.7458 29.8529 19.7212 29.4647 20.5742 29.4647C21.4807 29.4647 22.2122 29.8868 22.6135 30.5484L23.3451 30.0405ZM26.5481 25.6936C26.5481 25.2874 26.1983 25 25.832 25C25.4832 25 25.1334 25.2874 25.1334 25.6936C25.1334 26.1007 25.4832 26.3881 25.832 26.3881C26.1983 26.3881 26.5481 26.1007 26.5481 25.6936ZM26.3465 28.7023H25.3361V36.998H26.3465V28.7023ZM36.4547 32.8427C36.4547 30.4447 34.6952 28.7053 32.1702 28.7053C29.6627 28.7053 27.9043 30.4447 27.9043 32.8427C27.9043 35.2247 29.6627 36.998 32.1702 36.998C34.6952 36.998 36.4547 35.2247 36.4547 32.8427ZM35.4793 32.8427C35.4793 34.7178 34.2075 36.1697 32.1702 36.1697C30.1504 36.1697 28.8797 34.7178 28.8797 32.8427C28.8797 30.9686 30.1504 29.4986 32.1702 29.4986C34.2075 29.4986 35.4793 30.9686 35.4793 32.8427ZM38.0341 28.7023C38.0866 29.2272 38.1041 30.277 38.1041 30.7171V37H39.0641V32.7828C39.0641 30.5824 40.3379 29.4807 41.7516 29.4807C43.5512 29.4807 44.0575 30.768 44.0575 32.3257V37H45V31.9865C45 30.1243 44.0914 28.7023 41.9626 28.7023C40.7402 28.7023 39.5189 29.3958 39.0476 30.4796H39.0116C39.0116 30.0565 38.9766 29.1424 38.9416 28.7023H38.0341Z" fill="white"/>
<path d="M3 21.4436H4.24266C6.56318 21.4436 8.45452 19.5471 8.45452 17.2218C8.45452 14.8951 6.56318 13 4.24266 13H3V21.4436ZM14.9827 13H13.74C11.4195 13 9.52747 14.8951 9.52747 17.2218C9.52747 19.5471 11.4195 21.4436 13.74 21.4436H14.9827V13ZM24.7879 17.2218C24.7879 19.5492 22.8987 21.4436 20.5761 21.4436H17.5332V13H20.5761C22.8987 13 24.7879 14.8937 24.7879 17.2218ZM23.5109 17.2218C23.5109 15.6009 22.1932 14.28 20.5761 14.28H18.811V20.1636H20.5761C22.1932 20.1636 23.5109 18.8428 23.5109 17.2218ZM31.274 18.518C31.274 20.1319 29.9647 21.4436 28.3553 21.4436C26.7452 21.4436 25.4359 20.1319 25.4359 18.518C25.4359 16.9048 26.7452 15.5924 28.3553 15.5924C29.9647 15.5924 31.274 16.9048 31.274 18.518ZM30.1148 18.5152C30.1148 17.5473 29.321 16.7516 28.3553 16.7516C27.3897 16.7516 26.5951 17.536 26.5951 18.5152C26.5951 19.4838 27.3784 20.2796 28.3553 20.2796C29.321 20.2796 30.1148 19.4937 30.1148 18.5152ZM32.1001 21.4528H33.3772V13.0007H32.1001V21.4528ZM40.3184 18.5251C40.3184 20.1383 39.0084 21.4514 37.399 21.4514C36.7783 21.4514 36.2033 21.2552 35.7299 20.9235V21.4521H34.4501V13H35.7299V16.1266C36.2033 15.7949 36.7783 15.5988 37.399 15.5988C39.0084 15.5988 40.3184 16.9111 40.3184 18.5251ZM39.1585 18.5145C39.1585 17.5459 38.3646 16.7501 37.399 16.7501C36.6255 16.7501 35.9635 17.2541 35.7299 17.9578C35.6717 18.1321 35.6388 18.3191 35.6388 18.5145C35.6388 18.7078 35.6717 18.8948 35.7299 19.0698C35.962 19.7685 36.6184 20.2789 37.399 20.2789C38.3646 20.2789 39.1585 19.493 39.1585 18.5145ZM44.9966 15.6079L43.3332 19.3573L41.669 15.6079H40.2742L42.6361 20.9277C42.6361 20.9277 42.0582 22.2309 42.0568 22.2344C41.904 22.5782 41.4993 22.7335 41.1571 22.5803L40.9741 22.4987L40.4586 23.6579L40.4607 23.6593L40.9032 23.8568C41.7328 24.2286 42.7132 23.8512 43.0842 23.0161C43.087 23.0098 46.1081 16.2433 46.3914 15.6079H44.9966Z" fill="white"/>
</svg>
