<svg width="50" height="50" viewBox="0 0 50 50" fill="none" xmlns="http://www.w3.org/2000/svg">
<path d="M4.00768 37.8018H3L7.89941 26.476H8.80754L13.613 37.8018H12.6044L11.3282 34.7473H5.28582L4.00768 37.8018ZM5.61827 33.9163H10.9957L8.32859 27.437L5.61827 33.9163ZM17.887 29.961H15.7646V26.4694H14.8921V29.961H13.3398V30.6969H14.9062V35.8826C14.9062 37.3401 15.8125 37.8018 16.7244 37.8018C17.1695 37.8018 17.5536 37.7226 17.9039 37.5955L17.8579 36.8436C17.5846 36.9717 17.2503 37.0518 16.946 37.0518C16.2435 37.0518 15.7646 36.7466 15.7646 35.6762V30.6969H17.887V29.961ZM19.4901 37.8018H20.3672V33.8164C20.3672 31.738 21.5336 30.6799 22.715 30.6799C24.2477 30.6799 24.6149 31.8491 24.6149 33.2238V37.8018H25.4901V33.7203C25.4901 32.0706 26.2565 30.6799 27.8032 30.6799C29.2992 30.6799 29.828 31.9132 29.828 33.384V37.8018H30.6882V33.0655C30.6882 31.3046 29.8439 29.961 27.9291 29.961C26.7007 29.961 25.7428 30.6017 25.2657 31.738H25.2347C24.8187 30.4905 23.9744 29.961 22.8578 29.961C21.8069 29.961 20.787 30.6177 20.3503 31.639H20.3193C20.3193 31.2396 20.2865 30.3756 20.2564 29.961H19.4281C19.4741 30.4566 19.4901 31.4487 19.4901 31.8642V37.8018ZM35.9454 37.815C33.6483 37.815 32.0349 36.137 32.0349 33.8795C32.0349 31.608 33.6483 29.961 35.9454 29.961C38.2594 29.961 39.87 31.608 39.87 33.8795C39.87 36.137 38.2594 37.815 35.9454 37.815ZM35.9454 30.7129C34.0944 30.7129 32.9299 32.1045 32.9299 33.8795C32.9299 35.6555 34.0944 37.032 35.9454 37.032C37.8105 37.032 38.9769 35.6555 38.9769 33.8795C38.9769 32.1045 37.8105 30.7129 35.9454 30.7129ZM46.1124 31.233C45.6334 30.4161 44.6887 29.9695 43.6049 29.9695C42.3136 29.9695 41.0702 30.6102 41.0702 32.0489C41.0702 34.817 45.3892 33.5846 45.3892 35.615C45.3892 36.6571 44.483 37.0707 43.557 37.0707C42.647 37.0707 41.8516 36.5921 41.4205 35.9175L40.7359 36.4159C41.3707 37.359 42.4423 37.8065 43.557 37.8065C44.9122 37.8065 46.2551 37.1357 46.2551 35.5528C46.2551 34.3374 45.3414 33.7608 43.7646 33.4085C42.5371 33.1371 41.9004 32.8488 41.9004 31.9839C41.9004 31.0568 42.7926 30.6893 43.5739 30.6893C44.4022 30.6893 45.0737 31.0869 45.4409 31.7125L46.1124 31.233Z" fill="white"/>
<path d="M3 21.5177H4.25723C6.60436 21.5177 8.5161 19.6046 8.5161 17.2603C8.5161 14.9139 6.60436 13 4.25723 13H3V21.5177ZM15.1171 13H13.8613C11.5142 13 9.60102 14.9139 9.60102 17.2603C9.60102 19.6046 11.5142 21.5177 13.8613 21.5177H15.1171V13ZM20.7743 13H17.6975V21.5177H20.7743C23.1221 21.5177 25.0332 19.6067 25.0332 17.2596C25.0332 14.9117 23.1221 13 20.7743 13ZM20.7743 20.2272H18.9888V14.2927H20.7743C22.4088 14.2927 23.7412 15.6251 23.7412 17.2596C23.7412 18.8926 22.4088 20.2272 20.7743 20.2272ZM28.6404 15.6244C27.013 15.6244 25.6884 16.9476 25.6884 18.5749C25.6884 20.203 27.013 21.5241 28.6404 21.5241C30.267 21.5241 31.5916 20.203 31.5916 18.5749C31.5916 16.9476 30.267 15.6244 28.6404 15.6244ZM28.6404 20.342C27.6526 20.342 26.8605 19.5407 26.8605 18.5636C26.8605 17.5765 27.6632 16.783 28.6404 16.783C29.6161 16.783 30.4202 17.5879 30.4202 18.5636C30.4202 19.5507 29.6161 20.342 28.6404 20.342ZM32.427 21.5255H33.7175V13.0014H32.427V21.5255ZM37.7842 15.6251C37.1588 15.6251 36.5752 15.8215 36.0973 16.1569V13.0014H34.8032V21.5255H36.0973V20.9937C36.5752 21.3277 37.1588 21.5248 37.7842 21.5248C39.4116 21.5248 40.7369 20.203 40.7369 18.5749C40.7369 16.9476 39.4116 15.6251 37.7842 15.6251ZM37.7842 20.3427C36.995 20.3427 36.332 19.83 36.0973 19.1245C36.0384 18.9494 36.0051 18.7593 36.0051 18.5643C36.0051 18.3679 36.0384 18.1793 36.0973 18.0027C36.3334 17.2936 37.0028 16.7838 37.7842 16.7838C38.7621 16.7838 39.5648 17.5886 39.5648 18.5643C39.5648 19.5507 38.7621 20.3427 37.7842 20.3427ZM45.4673 15.6272L43.7875 19.4074L42.104 15.6272H40.6915L43.0798 20.9909C43.0798 20.9909 42.4955 22.3048 42.4941 22.3084C42.3402 22.6551 41.9324 22.8111 41.5843 22.6572L41.3985 22.5743L40.8787 23.745L40.8801 23.7457L41.329 23.945C42.1686 24.3187 43.1571 23.9386 43.5336 23.0976C43.5378 23.0898 46.5919 16.2668 46.877 15.6272H45.4673Z" fill="white"/>
</svg>
