<svg width="80" height="70" viewBox="0 0 80 70" fill="none" xmlns="http://www.w3.org/2000/svg">
<path d="M46.5519 11.7374C48.7934 12.9399 50.8859 14.0655 52.9807 15.1911C53.6782 15.5663 53.6902 15.6408 53.1082 16.2012C50.2702 18.931 47.4273 21.6608 44.5845 24.3881C44.4931 24.4771 44.3825 24.5421 44.1901 24.6864C45.015 20.3187 45.6788 16.0329 46.5543 11.7374H46.5519Z" fill="white" stroke="white" stroke-width="0.240509" stroke-miterlimit="10"/>
<path d="M50.1908 43.2802C49.0147 43.1719 47.8699 43.8141 47.6029 44.6968C47.5115 44.9998 47.5765 45.1802 47.9421 45.173C48.4231 45.1609 48.9041 45.173 49.3827 45.173H52.2472C52.1702 43.9391 51.035 43.3619 50.1908 43.2826V43.2802Z" fill="white" stroke="white" stroke-width="0.240509" stroke-miterlimit="10"/>
<path d="M33.5452 43.2682C32.0059 43.2537 30.9597 44.2591 30.9717 45.743C30.9838 47.1788 31.9987 48.1601 33.4827 48.1697C34.9329 48.1794 35.9551 47.1692 35.9623 45.7189C35.9695 44.3144 34.9498 43.2802 33.5452 43.2682Z" fill="white" stroke="white" stroke-width="0.240509" stroke-miterlimit="10"/>
<path d="M62.9763 31.8728C62.9811 30.3311 62.9233 28.8039 62.5385 27.2983C62.0094 25.2347 60.9824 23.5031 59.2676 22.2187C57.1728 20.6506 54.7677 20.1624 52.2039 20.184C51.4607 20.1912 50.8811 20.3933 50.3471 20.9128C47.6606 23.5271 44.9525 26.1222 42.2492 28.7197C42.1313 28.8327 41.9942 28.9241 41.7778 29.0949C41.7393 28.8808 41.7032 28.8039 41.7153 28.7365C42.2035 26.192 42.6917 23.6498 43.1944 21.1076C43.3531 20.3091 43.281 20.1961 42.4632 20.1961C38.0018 20.1961 33.5379 20.1816 29.0765 20.2057C27.8884 20.2105 26.6907 20.2538 25.517 20.4053C23.4366 20.6771 21.6159 21.5525 20.1632 23.0918C18.2704 25.0976 17.6042 27.5797 17.5874 30.2421C17.5489 36.339 17.5681 42.4359 17.5778 48.5328C17.5802 50.3102 17.9698 52.0106 18.8116 53.5787C20.5841 56.8737 23.4726 58.3336 27.1043 58.348C35.8757 58.3865 44.6471 58.3649 53.416 58.3576C55.1573 58.3576 56.8192 57.9704 58.32 57.0709C61.4899 55.1733 62.856 52.1814 62.9354 48.6627C63.0628 43.0685 62.9594 37.4694 62.9763 31.8728ZM29.4156 48.4775C29.4156 48.8046 29.3411 49.0499 28.9394 49.0379C28.5354 49.0235 28.5594 48.7373 28.5594 48.4631C28.5594 47.5973 28.5666 46.7338 28.557 45.868C28.5305 43.7491 26.6065 42.5923 24.7209 43.5663C23.9513 43.9632 23.5929 44.6558 23.5592 45.4928C23.5207 46.4524 23.5496 47.4145 23.5424 48.3765C23.5424 48.6796 23.5977 49.0307 23.1239 49.0403C22.614 49.0499 22.6717 48.6771 22.6717 48.3525C22.6717 46.604 22.6669 44.8531 22.6717 43.1045C22.6717 42.7775 22.5635 42.3518 23.1167 42.3542C23.6338 42.3566 23.5183 42.7582 23.5424 43.0685C23.5472 43.1382 23.564 43.2104 23.5833 43.3427C24.5958 42.4335 25.7358 42.181 26.9889 42.5129C28.3838 42.8833 29.3314 44.0401 29.3964 45.4784C29.4421 46.4765 29.4108 47.477 29.4132 48.4775H29.4156ZM36.8257 48.403C36.8257 48.7156 36.8522 49.0475 36.3832 49.0403C35.9478 49.0331 35.9791 48.7204 35.9719 48.4294C35.9719 48.3404 35.9527 48.2514 35.9406 48.148C33.8314 49.4323 32.0588 49.3217 30.8539 47.8546C29.8437 46.6232 29.8774 44.663 30.9284 43.5038C32.1935 42.1064 34.0382 42.0319 35.9551 43.3354C35.9695 43.0781 35.9286 42.864 36.0032 42.7029C36.0657 42.5682 36.2629 42.4143 36.4 42.4143C36.5371 42.4143 36.6982 42.5778 36.8017 42.7053C36.8594 42.7775 36.8257 42.9266 36.8257 43.042C36.8257 44.829 36.8257 46.616 36.8257 48.403ZM43.4565 47.946C42.2612 49.3289 40.657 49.3939 38.3842 48.136C38.3722 48.338 38.4059 48.5449 38.3361 48.7036C38.2736 48.8431 38.0932 49.0139 37.9633 49.0139C37.8334 49.0139 37.6867 48.8359 37.5809 48.706C37.5328 48.6459 37.5641 48.5208 37.5641 48.4246C37.5641 45.8488 37.5641 43.2729 37.5641 40.6971C37.5641 40.6201 37.5352 40.5215 37.5737 40.471C37.6795 40.3195 37.8142 40.1848 37.9345 40.0453C38.0739 40.1872 38.3265 40.3243 38.3361 40.4758C38.3794 41.2238 38.3577 41.9742 38.3577 42.7245C38.3577 42.9146 38.3577 43.1021 38.3577 43.422C39.3655 42.5225 40.4646 42.2243 41.6696 42.4696C42.4175 42.6235 43.0597 43.018 43.5407 43.6313C44.5124 44.8771 44.4739 46.7699 43.4565 47.9484V47.946ZM45.8135 48.4342C45.8087 48.6363 45.6187 48.9537 45.448 49.0115C45.068 49.1341 44.9742 48.8407 44.9742 48.5064C44.979 47.0297 44.9742 45.5505 44.9742 44.0738C44.9742 42.9218 44.9742 41.7721 44.9742 40.6201C44.9742 40.3435 44.9717 40.0549 45.359 40.0381C45.7606 40.0188 45.828 40.2882 45.828 40.6081C45.828 41.914 45.828 43.2176 45.828 44.5236C45.828 45.8271 45.8448 47.1331 45.8111 48.4366L45.8135 48.4342ZM52.6127 46.0195C51.1312 46.0099 49.6497 46.0195 48.1681 46.0267C47.9468 46.0267 47.7256 46.0508 47.4754 46.0676C47.5187 46.7507 47.7833 47.2341 48.2379 47.6309C49.2408 48.5064 51.6146 48.5112 52.2471 46.5919C52.2712 46.5198 52.2832 46.4091 52.3337 46.3827C52.5309 46.2793 52.745 46.2047 52.9518 46.1181C53.0144 46.2889 53.1587 46.4789 53.125 46.6304C52.858 47.8594 52.0451 48.6363 50.8738 48.9417C48.8752 49.4636 47.0473 48.4078 46.6313 46.5318C46.3306 45.1681 46.7948 43.8116 47.8555 43.0468C48.9907 42.2291 50.5804 42.1858 51.7685 42.9362C52.644 43.4894 53.0793 44.3095 53.2332 45.3076C53.3078 45.7934 53.1322 46.0243 52.6151 46.0219L52.6127 46.0195ZM57.2618 49.0259C56.2588 49.0259 55.4483 48.5737 54.8038 47.8354C54.2386 47.1908 53.9836 46.4091 53.974 45.5553C53.9644 44.7472 53.974 43.9415 53.974 43.1334H53.9692C53.9692 42.2868 53.9692 41.4426 53.9692 40.596C53.9692 40.305 54.0149 40.0429 54.3877 40.0357C54.7677 40.0308 54.8086 40.2954 54.811 40.5864C54.811 41.0097 54.823 41.433 54.811 41.8539C54.8014 42.1978 54.9529 42.3421 55.2944 42.3349C55.8331 42.3253 56.3719 42.3277 56.9082 42.3397C57.192 42.3469 57.5143 42.3133 57.5191 42.7558C57.5215 43.1887 57.2233 43.1815 56.925 43.1839C56.3671 43.1839 55.8091 43.1575 55.2535 43.2032C55.0972 43.2152 54.8374 43.4461 54.835 43.5784C54.8278 44.4394 54.811 45.31 54.9312 46.1614C55.0852 47.2461 55.8067 47.8714 56.8625 48.112C57.0309 48.1504 57.2401 48.1264 57.3628 48.2202C57.5167 48.338 57.6682 48.5401 57.6851 48.718C57.6947 48.8118 57.4133 49.0259 57.2618 49.0259Z" fill="white"/>
<path d="M40.8903 43.2681C39.4112 43.2681 38.4443 44.2398 38.4468 45.7213C38.4468 47.2389 39.3583 48.1553 40.8807 48.1697C42.3743 48.1841 43.3748 47.1908 43.3724 45.6949C43.3676 44.2374 42.3791 43.2681 40.8927 43.2681H40.8903Z" fill="white" stroke="white" stroke-width="0.240509" stroke-miterlimit="10"/>
</svg>
