<svg width="80" height="70" viewBox="0 0 80 70" fill="none" xmlns="http://www.w3.org/2000/svg">
<path fill-rule="evenodd" clip-rule="evenodd" d="M38.6569 51.2035H37.8167C37.8167 52.1942 37.8167 53.185 37.8167 54.1758C37.2495 54.1758 36.6824 54.1758 36.1152 54.1758C35.7371 54.1758 35.359 54.1758 34.9809 54.1758C34.9809 53.185 34.9809 52.1942 34.9809 51.207C34.3298 51.207 33.6821 51.207 33.0344 51.207V58.8985H34.9809C34.9809 57.8692 34.9809 56.8399 34.9809 55.8107H36.1922C36.7314 55.8107 37.2705 55.8107 37.8096 55.8107C37.8096 56.8399 37.8096 57.8692 37.8096 58.8985H39.7667C39.7667 56.3358 39.7667 53.7731 39.7667 51.207C39.3921 51.207 39.021 51.207 38.6464 51.207" fill="white"/>
<path fill-rule="evenodd" clip-rule="evenodd" d="M49.9543 52.8489C50.4514 52.8489 50.9485 52.8489 51.4457 52.8489C51.9918 52.8489 52.5379 52.8489 53.0841 52.8489C51.9218 54.8654 50.756 56.8784 49.5937 58.895H55.8638C55.8638 58.3453 55.8638 57.7992 55.8638 57.2495C55.4227 57.2495 54.9781 57.2495 54.537 57.2495C53.8753 57.2495 53.2101 57.2495 52.5484 57.2495C52.832 56.7734 53.1016 56.2903 53.3817 55.8107C54.2289 54.3403 55.0761 52.8699 55.9233 51.396C55.9443 51.3365 55.9268 51.27 55.9338 51.2035H53.3712C52.2334 51.2035 51.0956 51.2035 49.9543 51.2035C49.9543 51.7531 49.9543 52.2993 49.9543 52.8489Z" fill="white"/>
<path fill-rule="evenodd" clip-rule="evenodd" d="M24.5902 51.0984C24.5902 53.6961 24.5902 56.2938 24.5902 58.8949H26.4947C26.4947 57.6031 26.4947 56.3148 26.4947 55.0229C27.0373 55.4535 27.5485 55.9192 28.0701 56.3778C29.0574 57.253 30.0516 58.1247 31.0389 59H31.1159V51.2035H29.2009C29.2009 52.4953 29.2009 53.7871 29.2009 55.079C28.8438 54.7954 28.5007 54.4978 28.1611 54.1932C26.9988 53.1605 25.8365 52.1312 24.6777 51.0984C24.6497 51.0984 24.6217 51.0984 24.5937 51.0984M41.6781 51.0949C41.6781 53.6926 41.6781 56.2938 41.6781 58.8914H43.5826C43.5826 57.5996 43.5826 56.3078 43.5826 55.0194C43.9957 55.3485 44.3948 55.6951 44.7869 56.0452C45.9002 57.029 47.0135 58.0127 48.1233 58.9965H48.2003V51.2H46.2853C46.2853 52.4918 46.2853 53.7836 46.2853 55.072C45.9247 54.7884 45.5781 54.4838 45.235 54.1757C44.0762 53.15 42.9209 52.1207 41.7621 51.0914H41.6781V51.0949Z" fill="white"/>
<path fill-rule="evenodd" clip-rule="evenodd" d="M24.6393 10.25C24.6428 22.6467 24.6393 35.0399 24.6393 47.4365C27.6675 47.4365 30.6993 47.4365 33.7276 47.4365C33.7276 41.282 33.7206 35.1274 33.7346 28.9728C35.7056 30.5412 37.5996 32.1971 39.4796 33.8741C44.7834 38.5688 50.1013 43.2495 55.3981 47.9547C55.5172 47.9547 55.6397 47.9512 55.7622 47.9512V10.7611C52.7165 10.7611 49.6707 10.7611 46.6249 10.7611C46.6249 16.9192 46.6249 23.0773 46.6249 29.2354C44.899 27.877 43.243 26.4312 41.6081 24.9643C36.0872 20.0595 30.5663 15.1548 25.0454 10.25H24.6393Z" fill="white"/>
</svg>
