<svg width="50" height="50" viewBox="0 0 50 50" fill="none" xmlns="http://www.w3.org/2000/svg">
<g clip-path="url(#clip0_33_390)">
<path d="M1.85151 45.6769V48.4454C1.85151 48.501 1.80743 48.5381 1.76334 48.5381H1.16381C1.11972 48.5381 1.07564 48.4917 1.07564 48.4454V45.6769C1.07564 45.6212 1.04037 45.5842 0.987476 45.5842H0.0881672C0.0440835 45.5842 0 45.5379 0 45.4916V44.9268C0 44.8713 0.0440835 44.8342 0.0881672 44.8342H2.83898C2.88307 44.8342 2.92715 44.8713 2.92715 44.9268V45.4916C2.92715 45.5472 2.88307 45.5842 2.83898 45.5842H1.93967C1.89559 45.5842 1.85151 45.6212 1.85151 45.6769Z" fill="#E65424"/>
<path d="M4.44267 45.9928L4.10763 46.8632C4.08118 46.928 4.12527 46.9928 4.18698 46.9928H4.86586C4.92758 46.9928 4.97166 46.928 4.94522 46.8632L4.61018 45.9928C4.58374 45.9187 4.47794 45.9187 4.45148 45.9928M5.58002 48.4836L5.29789 47.7706C5.29789 47.7706 5.2538 47.7151 5.21853 47.7151H3.84313C3.84313 47.7151 3.7726 47.7336 3.76378 47.7706L3.48165 48.4836C3.48165 48.4836 3.43756 48.5392 3.4023 48.5392H2.80276C2.74104 48.5392 2.69696 48.4744 2.72341 48.4095L4.16053 44.8538C4.16053 44.8538 4.20461 44.7983 4.23988 44.7983H4.83942C4.83942 44.7983 4.90995 44.8168 4.91877 44.8538L6.35589 48.4095C6.38234 48.4744 6.33826 48.5392 6.27654 48.5392H5.65937C5.65937 48.5392 5.58884 48.5114 5.58002 48.4836Z" fill="#E65424"/>
<path d="M9.41435 48.4547V46.4361C9.41435 46.3435 9.29974 46.3065 9.25566 46.3898L8.42689 47.714H8.40925L7.58929 46.3991C7.54521 46.325 7.4306 46.3528 7.4306 46.4454V48.4547C7.4306 48.5102 7.39533 48.5474 7.34242 48.5474H6.75171C6.70763 48.5474 6.66354 48.5102 6.66354 48.4547V44.9268C6.66354 44.8805 6.6988 44.8342 6.75171 44.8342H7.45705C7.45705 44.8342 7.51876 44.8527 7.52758 44.8805L8.35635 46.2787C8.39162 46.3343 8.47097 46.3343 8.50623 46.2787L9.335 44.8805C9.335 44.8805 9.37909 44.8342 9.40554 44.8342H10.1109C10.1549 44.8342 10.199 44.8713 10.199 44.9268V48.4547C10.199 48.5102 10.1549 48.5474 10.1109 48.5474H9.51129C9.4584 48.5474 9.42318 48.5102 9.42318 48.4547" fill="#E65424"/>
<path d="M12.2625 45.9928L11.9275 46.8632C11.901 46.928 11.9451 46.9928 12.0068 46.9928H12.6858C12.7474 46.9928 12.7915 46.928 12.7651 46.8632L12.4301 45.9928C12.4036 45.9187 12.2978 45.9187 12.2625 45.9928ZM13.3911 48.4836L13.1089 47.7706C13.1089 47.7706 13.0649 47.7151 13.0296 47.7151H11.6542C11.6542 47.7151 11.5837 47.7336 11.5749 47.7706L11.2927 48.4836C11.2927 48.4836 11.2486 48.5392 11.2134 48.5392H10.6138C10.5521 48.5392 10.508 48.4744 10.5344 48.4095L11.9716 44.8538C11.9716 44.8538 12.0157 44.7983 12.0509 44.7983H12.6504C12.6504 44.7983 12.721 44.8168 12.7298 44.8538L14.1669 48.4095C14.1934 48.4744 14.1493 48.5392 14.0876 48.5392H13.4704C13.4704 48.5392 13.3999 48.5114 13.3911 48.4836Z" fill="#E65424"/>
<path d="M16.8298 48.502L15.8247 47.0483C15.8247 47.0483 15.7278 47.0019 15.6925 47.0389L15.3839 47.3816C15.3839 47.3816 15.3574 47.4186 15.3574 47.4464V48.4464C15.3574 48.4928 15.3133 48.5391 15.2693 48.5391H14.6697C14.6257 48.5391 14.5816 48.502 14.5816 48.4464V44.9185C14.5816 44.8722 14.6257 44.8259 14.6697 44.8259H15.2693C15.3133 44.8259 15.3574 44.8722 15.3574 44.9185V46.2149C15.3574 46.2982 15.4544 46.3352 15.5073 46.2797L16.7593 44.863C16.7593 44.863 16.8034 44.8352 16.821 44.8352H17.5175C17.5969 44.8352 17.6321 44.937 17.5792 44.9925L16.3361 46.3537C16.3361 46.3537 16.3009 46.4371 16.3361 46.4742L17.6939 48.4001C17.738 48.4649 17.6939 48.5483 17.6233 48.5483H16.9091C16.9091 48.5483 16.8563 48.5391 16.8387 48.5113" fill="#E65424"/>
<path d="M18.0904 48.4547V44.9268C18.0904 44.8805 18.1257 44.8342 18.1786 44.8342H18.7781C18.831 44.8342 18.8663 44.8713 18.8663 44.9268V48.4547C18.8663 48.5102 18.831 48.5474 18.7781 48.5474H18.1786C18.1257 48.5474 18.0904 48.5102 18.0904 48.4547Z" fill="#E65424"/>
<path d="M24.0254 48.4547V46.4361C24.0254 46.3435 23.9109 46.3065 23.8667 46.3898L23.038 47.714H23.0203L22.2004 46.3991C22.1563 46.325 22.0417 46.3528 22.0417 46.4454V48.4547C22.0417 48.5102 22.0064 48.5474 21.9535 48.5474H21.3628C21.3187 48.5474 21.2746 48.5102 21.2746 48.4547V44.9268C21.2746 44.8805 21.3099 44.8342 21.3628 44.8342H22.0681C22.0681 44.8342 22.1299 44.8527 22.1387 44.8805L22.9674 46.2787C23.0027 46.3343 23.0821 46.3343 23.1173 46.2787L23.9461 44.8805C23.9461 44.8805 23.9902 44.8342 24.0166 44.8342H24.7219C24.7661 44.8342 24.8102 44.8713 24.8102 44.9268V48.4547C24.8102 48.5102 24.7661 48.5474 24.7219 48.5474H24.1224C24.0783 48.5474 24.0343 48.5102 24.0343 48.4547" fill="#E65424"/>
<path d="M26.8169 45.9928L26.4818 46.8632C26.4554 46.928 26.4994 46.9928 26.5612 46.9928H27.24C27.3018 46.9928 27.3458 46.928 27.3194 46.8632L26.9843 45.9928C26.9579 45.9187 26.8521 45.9187 26.8256 45.9928M27.9542 48.4836L27.6721 47.7706C27.6721 47.7706 27.6279 47.7151 27.5927 47.7151H26.2173C26.2173 47.7151 26.1468 47.7336 26.1379 47.7706L25.8558 48.4836C25.8558 48.4836 25.8118 48.5392 25.7764 48.5392H25.1769C25.1152 48.5392 25.0711 48.4744 25.0976 48.4095L26.5347 44.8538C26.5347 44.8538 26.5787 44.7983 26.6141 44.7983H27.2136C27.2136 44.7983 27.2841 44.8168 27.2929 44.8538L28.7301 48.4095C28.7565 48.4744 28.7124 48.5392 28.6507 48.5392H28.0335C28.0335 48.5392 27.963 48.5114 27.9542 48.4836Z" fill="#E65424"/>
<path d="M31.3856 48.502L30.3805 47.0483C30.3805 47.0483 30.2835 47.0019 30.2483 47.0389L29.9397 47.3816C29.9397 47.3816 29.9132 47.4186 29.9132 47.4464V48.4464C29.9132 48.4928 29.8779 48.5391 29.825 48.5391H29.2255C29.1814 48.5391 29.1374 48.502 29.1374 48.4464V44.9185C29.1374 44.8722 29.1726 44.8259 29.2255 44.8259H29.825C29.8691 44.8259 29.9132 44.8722 29.9132 44.9185V46.2149C29.9132 46.2982 30.0101 46.3352 30.0631 46.2797L31.315 44.863C31.315 44.863 31.3591 44.8352 31.3768 44.8352H32.0733C32.1527 44.8352 32.1879 44.937 32.135 44.9925L30.8919 46.3537C30.8919 46.3537 30.8565 46.4371 30.8919 46.4742L32.2496 48.4001C32.2937 48.4649 32.2496 48.5483 32.1791 48.5483H31.4649C31.4649 48.5483 31.412 48.5391 31.3944 48.5113" fill="#E65424"/>
<path d="M34.1888 45.9928L33.8538 46.8632C33.8274 46.928 33.8714 46.9928 33.9332 46.9928H34.612C34.6737 46.9928 34.7178 46.928 34.6913 46.8632L34.3563 45.9928C34.3299 45.9187 34.2241 45.9187 34.1976 45.9928M35.3262 48.4836L35.044 47.7706C35.044 47.7706 34.9999 47.7151 34.9647 47.7151H33.5892C33.5892 47.7151 33.5188 47.7336 33.5099 47.7706L33.2278 48.4836C33.2278 48.4836 33.1837 48.5392 33.1484 48.5392H32.5489C32.4871 48.5392 32.4431 48.4744 32.4696 48.4095L33.9067 44.8538C33.9067 44.8538 33.9507 44.7983 33.9861 44.7983H34.5856C34.5856 44.7983 34.6561 44.8168 34.6649 44.8538L36.102 48.4095C36.1285 48.4744 36.0844 48.5392 36.0227 48.5392H35.4055C35.4055 48.5392 35.335 48.5114 35.3262 48.4836Z" fill="#E65424"/>
<path d="M37.7431 48.6029C36.7909 48.6029 36.2178 48.0473 36.2178 46.9547V44.9268C36.2178 44.8713 36.2531 44.8342 36.306 44.8342H36.9055C36.9496 44.8342 36.9937 44.8805 36.9937 44.9268V46.9361C36.9937 47.538 37.2846 47.8528 37.7519 47.8528C38.2192 47.8528 38.519 47.5473 38.519 46.9639V44.9268C38.519 44.8713 38.5542 44.8342 38.6071 44.8342H39.2067C39.2596 44.8342 39.2948 44.8805 39.2948 44.9268V46.9269C39.2948 48.0473 38.6953 48.6029 37.7431 48.6029Z" fill="#E65424"/>
<path d="M42.0454 46.1028C42.0454 45.7509 41.8162 45.5749 41.4371 45.5749H40.7582C40.7052 45.5749 40.67 45.612 40.67 45.6676V46.5473C40.67 46.5936 40.7052 46.6398 40.7582 46.6398H41.4547C41.8338 46.6398 42.0454 46.4268 42.0454 46.112V46.1028ZM42.0013 48.5102L41.2695 47.362H40.6612V48.4547C40.6612 48.501 40.6259 48.5474 40.573 48.5474H39.9735C39.9206 48.5474 39.8853 48.501 39.8853 48.4547V44.9268C39.8853 44.8805 39.9206 44.8342 39.9735 44.8342H41.4987C42.3275 44.8342 42.8301 45.2972 42.8301 46.0565C42.8301 46.6676 42.5215 47.0472 42.0719 47.2139L42.8389 48.3899C42.8742 48.4547 42.8389 48.5381 42.7684 48.5381H42.0719C42.0719 48.5381 42.0189 48.5195 42.0013 48.501" fill="#E65424"/>
<path d="M44.9124 45.9928L44.5773 46.8632C44.5509 46.928 44.595 46.9928 44.6567 46.9928H45.3356C45.3973 46.9928 45.4414 46.928 45.415 46.8632L45.0799 45.9928C45.0535 45.9187 44.9477 45.9187 44.9124 45.9928ZM46.0409 48.4836L45.7588 47.7706C45.7588 47.7706 45.7148 47.7151 45.6794 47.7151H44.3041C44.3041 47.7151 44.2335 47.7336 44.2247 47.7706L43.9426 48.4836C43.9426 48.4836 43.8985 48.5392 43.8633 48.5392H43.2637C43.202 48.5392 43.1579 48.4744 43.1843 48.4095L44.6215 44.8538C44.6215 44.8538 44.6656 44.7983 44.7008 44.7983H45.3003C45.3003 44.7983 45.3709 44.8168 45.3797 44.8538L46.8168 48.4095C46.8432 48.4744 46.7992 48.5392 46.7374 48.5392H46.1203C46.1203 48.5392 46.0498 48.5114 46.0409 48.4836Z" fill="#E65424"/>
<path d="M48.4652 48.6029C47.513 48.6029 46.9399 48.0473 46.9399 46.9547V44.9268C46.9399 44.8713 46.9752 44.8342 47.0282 44.8342H47.6277C47.6718 44.8342 47.7158 44.8805 47.7158 44.9268V46.9361C47.7158 47.538 48.0068 47.8528 48.4741 47.8528C48.9414 47.8528 49.2411 47.5473 49.2411 46.9639V44.9268C49.2411 44.8713 49.2764 44.8342 49.3293 44.8342H49.9288C49.9817 44.8342 50.017 44.8805 50.017 44.9268V46.9269C50.017 48.0473 49.4174 48.6029 48.4652 48.6029Z" fill="#E65424"/>
<path d="M45.3348 24.3343C45.1584 24.1213 44.9645 23.8806 40.7678 23.5472C40.3181 23.5102 39.842 23.4824 39.3482 23.4454C39.2777 23.2417 39.2072 23.038 39.1366 22.8343C43.9947 23.0565 44.6206 22.9454 44.9116 22.6398C45.0262 22.5195 45.0879 22.3528 45.0791 22.1861C45.0527 21.6676 44.5677 21.4731 43.4127 21.2046C42.9367 21.0935 42.3372 20.973 41.6582 20.862C41.8962 20.8435 42.099 20.8249 42.2666 20.8157C42.7868 20.7601 43.2011 20.7231 43.2805 20.2601C43.3246 20.0286 43.2628 19.8063 43.113 19.6119C42.8838 19.3249 42.39 19.0008 40.4415 18.7786C38.8545 18.6026 36.0155 18.6396 35.8921 18.6396C35.3455 17.0377 33.3353 11.0837 33.1854 10.5559C33.0355 10.0282 32.9561 9.76892 32.8591 9.32443C33.5116 10.9171 34.1905 12.6117 34.887 14.408C35.3631 15.6303 35.8215 16.8525 36.2624 18.047L37.3733 17.9915C37.1352 17.3433 36.8884 16.6859 36.6327 16.0099C35.1162 11.9912 30.7696 2.38895 30.3464 1.44446C30.2582 1.25001 30.0114 1 29.6587 1H20.8508C20.507 1 20.2601 1.20371 20.1455 1.4815C19.0522 4.00939 7.59044 30.6402 6.97327 32.0847C6.84984 32.381 7.05262 32.7143 7.36121 32.7143H15.1288C15.3932 32.7143 15.7018 32.5569 15.8428 32.2236C16.7598 30.1124 17.6944 27.9363 18.3204 26.4825C18.435 26.214 18.7612 26.0289 19.0169 26.0289H30.4699L30.2229 25.2325C28.777 25.2881 27.384 25.353 25.9997 25.4177C25.2944 25.427 25.0828 25.1585 25.6735 25.0752C26.1143 25.0473 26.5728 25.0195 27.049 25.001C28.2833 24.9362 29.4206 24.8622 30.3993 24.8066L31.1664 27.1863C31.4485 28.029 31.7042 28.8253 31.951 29.5753C32.5241 31.3346 32.9913 32.7236 33.3705 33.7143C34.2521 36.02 35.3542 35.2885 35.4777 35.0663C35.901 34.2792 35.4336 32.8439 33.1677 26.2419C33.2735 26.2419 33.3881 26.2326 33.4939 26.2326L33.0972 25.2325H31.5895L31.1135 23.7232H31.4221L31.7571 24.7232C31.7571 24.7232 33.0002 24.6399 33.1766 24.6214C33.2382 24.7881 34.1288 27.0752 34.2962 27.4919C37.0647 34.4552 37.4262 34.4366 37.8494 34.4274C38.0522 34.4274 38.2373 34.3162 38.3608 34.1311C38.7487 33.5477 38.449 31.992 36.6591 26.1029C36.7914 26.1029 36.9236 26.0937 37.0559 26.0844L36.6679 25.0103L34.4903 25.0844L33.9701 23.8065L34.3756 23.8343L34.6402 24.4825L36.6856 24.3991C36.6856 24.3991 37.6555 26.7233 37.7877 27.0474C38.784 29.3993 39.6216 31.2328 40.2652 32.4921C41.332 34.5662 41.8169 34.9737 42.2842 34.9737C42.4958 34.9737 42.6986 34.8348 42.778 34.6219C42.8661 34.3996 42.9543 34.1866 41.0764 28.5289C40.8471 27.8345 40.5385 26.9271 40.1682 25.8436C40.6531 25.7974 42.6545 25.64 43.9505 25.4548C44.991 25.3066 45.2642 25.2418 45.4053 24.9084C45.4847 24.7047 45.4582 24.4825 45.3171 24.3158M32.1186 26.2419C32.145 26.3159 32.1715 26.3807 32.189 26.4548C32.8768 28.4641 33.4323 30.1772 33.8378 31.5013C34.0582 32.2328 34.2346 32.8439 34.358 33.3255C34.164 32.8254 33.926 32.2143 33.6791 31.5291C33.4234 30.8068 33.1412 30.0106 32.8856 29.2235C32.5946 28.316 32.2596 27.2974 31.9069 26.2604H32.1186V26.2419ZM35.5483 26.1307C35.9714 27.5197 36.4035 28.9457 36.7385 30.1772C36.8531 30.5847 36.9589 30.9735 37.0471 31.3439C36.8972 31.0106 36.7385 30.6402 36.571 30.242C36.0772 29.0845 35.5041 27.6771 34.9046 26.1585C35.1162 26.1585 35.3278 26.14 35.5483 26.1307ZM38.7222 21.7601C38.7046 21.7046 38.6693 21.5749 38.6517 21.5194C39.4276 21.5657 40.9 21.7139 41.4643 21.8713C40.803 21.8713 39.313 21.8064 38.7222 21.7601ZM40.6002 19.8341C40.0271 19.862 38.7664 19.899 38.0786 19.9268C38.0522 19.8527 38.0257 19.7878 37.9993 19.7138C38.6341 19.723 39.9566 19.7693 40.6002 19.8341ZM36.5886 19.5564L36.8355 19.5378L37.338 20.936L37.0471 20.9638L36.7385 19.9916C36.518 20.0008 36.2977 20.0101 36.0772 20.0193C36.042 19.9268 35.9979 19.8341 35.9626 19.7415C36.183 19.7415 36.4122 19.7323 36.6504 19.723L36.5975 19.5564H36.5886ZM34.2169 17.4544L34.7106 18.8434H34.3491L34.0141 17.4266L34.2257 17.4451L34.2169 17.4544ZM30.4786 10.1023C30.4786 10.1023 30.5315 10.1763 30.5668 10.2411C30.7696 10.6116 31.4396 12.7783 31.6248 13.3801C31.9246 14.2968 33.5556 19.6397 33.5997 19.8156L34.5872 19.7508L34.5519 19.6582H34.9311C34.9311 19.6582 35.4865 21.4453 35.5129 21.5194C35.46 21.5194 35.2573 21.4916 35.2043 21.4731L34.7283 20.149C34.7283 20.149 33.0002 20.186 32.674 20.1768C32.6475 20.1119 32.5946 19.936 32.5682 19.8712C32.7269 19.8712 32.8856 19.8527 33.0443 19.8435C33.1325 19.8435 33.2118 19.8435 33.2911 19.8341L32.9561 18.7415C32.6652 18.76 32.4272 18.7693 32.1803 18.7786C31.8629 17.6859 30.4699 11.4912 30.461 10.2504C30.461 10.1856 30.461 10.1023 30.4786 10.1023ZM29.3765 14.3432C29.6763 14.9173 30.1965 16.2599 30.4699 17.0377C30.7343 17.8156 30.8753 18.2137 31.087 18.8341C30.9371 18.8341 30.7872 18.8434 30.6285 18.8526C30.4345 18.2878 30.0378 17.1766 30.0378 17.1766C29.8527 16.6674 29.1562 14.6673 29.1121 14.4728C28.9005 13.6487 29.0679 13.7505 29.3853 14.3525M21.6266 18.76C22.2261 17.3618 24.7477 11.5005 24.8535 11.2597C24.9594 11.0189 25.0828 10.8986 25.2503 10.8986C25.4178 10.8986 25.55 11.0375 25.647 11.2597C25.7441 11.4912 28.3009 17.4914 28.8299 18.7323C29.015 19.1674 28.7946 19.7508 28.2127 19.7508H22.2526C21.6179 19.7508 21.5032 19.0656 21.6266 18.7693M24.2717 22.2047C23.7955 22.2602 23.3195 22.3065 22.8258 22.3435C22.6405 22.362 22.5965 22.2509 22.6494 22.1305C22.7111 21.9917 22.9139 21.8342 23.196 21.8249C25.0916 21.6953 28.9886 21.4916 29.1385 21.4824C29.1649 21.5564 29.2002 21.6491 29.2266 21.7231C27.9129 21.8064 26.5199 21.9454 24.2628 22.2047M27.428 22.9824C27.6837 22.9083 28.9005 22.7324 29.597 22.6861C29.6234 22.7602 29.6851 22.9546 29.7203 23.0194C29.0327 23.0009 27.9835 23.0658 27.4369 22.9731M29.641 20.1398C29.6146 20.0841 29.5793 19.9638 29.5352 19.8156H29.8527L29.5617 18.8804H29.2972C29.2266 18.6304 29.1737 18.3989 29.1385 18.2693C28.9886 17.7044 28.918 17.3803 28.9093 17.2136C28.8916 17.047 28.9445 17.0563 29.0327 17.1673C29.1297 17.297 29.262 17.5471 29.3942 17.7877C29.6675 18.2878 30.0378 19.3434 30.1965 19.8156L31.2633 19.7971H31.4573L31.9333 21.5101H31.5983L31.131 20.1119L29.6499 20.1305L29.641 20.1398ZM32.5417 23.7788L32.2948 23.0843C32.2155 23.0843 30.8137 23.038 30.8137 23.038L30.3993 21.4546H30.6814L31.0958 22.6398L32.145 22.6583L32.0127 22.3157H32.3477L32.8856 23.7788H32.5505H32.5417ZM36.1919 24.1491L35.8304 23.2417L33.4852 23.1399L33.3353 22.6398H33.5468L33.106 21.4176L33.5027 21.4361L33.9348 22.6491L35.9626 22.612L36.5357 24.1306L36.1919 24.1491ZM36.2712 21.6213L36.1565 21.3805L37.532 21.4083L37.629 21.6954L36.2712 21.612V21.6213ZM37.2763 23.3621L37.2322 23.1121H37.8494L37.6466 22.6213L37.964 22.6583L38.4401 23.8621L38.1404 23.8065L37.964 23.3806L37.2763 23.3529V23.3621ZM40.5385 30.2791C40.7149 30.8253 40.706 30.7883 40.8559 31.2606C40.6531 30.8438 40.6619 30.8717 40.4063 30.3161C39.9566 29.3438 39.5158 28.3901 38.5019 25.9733C38.59 25.9733 38.687 25.9548 38.7928 25.9548L38.396 24.8714L38.0522 24.8992L37.867 24.4454L38.6165 24.4825C38.6165 24.4825 40.177 29.1587 40.5385 30.2791ZM39.8067 24.7602L39.7009 24.5011C39.7009 24.5011 41.3937 24.5288 41.8698 24.5936C41.4466 24.7047 40.1682 24.7325 39.7979 24.7602" fill="#E65424"/>
<path d="M6.39062 39.3897L5.94096 38.186C5.90569 38.1027 5.79989 38.1027 5.76463 38.186L5.30616 39.3897C5.2797 39.4546 5.32379 39.5287 5.39433 39.5287H6.31126C6.38179 39.5287 6.42589 39.4546 6.39943 39.3897M5.21799 36.1118H6.51405C6.51405 36.1118 6.58458 36.1396 6.60221 36.1766L8.78876 41.6121C8.81521 41.6769 8.77112 41.7509 8.70059 41.7509H7.32519C7.32519 41.7509 7.25465 41.7231 7.23702 41.6861L6.90198 40.8064C6.90198 40.8064 6.84908 40.7416 6.81381 40.7416H4.88295C4.88295 40.7416 4.81242 40.7694 4.79479 40.8064L4.45975 41.6861C4.45975 41.6861 4.40685 41.7509 4.37159 41.7509H3.04026C2.96973 41.7509 2.92565 41.6769 2.95209 41.6121L5.12982 36.1766C5.12982 36.1766 5.17391 36.1118 5.21799 36.1118Z" fill="#E65424"/>
<path d="M8.84412 39.2886V36.2515C8.84412 36.196 8.8882 36.1496 8.9411 36.1496H10.2459C10.2988 36.1496 10.343 36.196 10.343 36.2515V39.2609C10.343 40.0665 10.7309 40.4461 11.3216 40.4461C11.9123 40.4461 12.309 40.0757 12.309 39.2979V36.2515C12.309 36.196 12.3532 36.1496 12.4061 36.1496H13.711C13.7639 36.1496 13.808 36.196 13.808 36.2515V39.2516C13.808 41.048 12.8293 41.8443 11.3128 41.8443C9.79634 41.8443 8.85294 41.0387 8.85294 39.2886" fill="#E65424"/>
<path d="M14.3454 38.9548V38.9363C14.3454 37.3066 15.5357 36.0288 17.1404 36.0288C18.1807 36.0288 18.8684 36.4733 19.3445 37.103C19.3798 37.1492 19.3709 37.214 19.3268 37.2418L18.3658 38.0289C18.3658 38.0289 18.2688 38.0567 18.2336 38.0104C17.9427 37.6585 17.6076 37.427 17.1315 37.427C16.3821 37.427 15.8619 38.103 15.8619 38.9178V38.9363C15.8619 39.7697 16.3909 40.4271 17.1315 40.4271C17.6517 40.4271 17.9779 40.1864 18.2777 39.816C18.3129 39.779 18.3658 39.7697 18.4012 39.7975L19.3622 40.5198C19.3622 40.5198 19.415 40.6216 19.3798 40.6679C18.886 41.3531 18.2159 41.8439 17.0874 41.8439C15.5621 41.8439 14.3454 40.6216 14.3454 38.9548Z" fill="#E65424"/>
<path d="M20.1739 36.1404H21.4611C21.514 36.1404 21.5582 36.1867 21.5582 36.2423V38.1405C21.5582 38.2331 21.6727 38.2794 21.7256 38.2053L23.3656 36.1775C23.3656 36.1775 23.4097 36.1404 23.4361 36.1404H24.9173C24.9966 36.1404 25.0407 36.2423 24.9878 36.3071L23.1628 38.4831C23.1628 38.4831 23.1275 38.5664 23.1628 38.6035L25.1024 41.5758C25.1465 41.6407 25.1024 41.7332 25.0231 41.7332H23.489C23.489 41.7332 23.4272 41.7147 23.4097 41.687L22.1577 39.7609C22.1224 39.7054 22.0519 39.7054 22.0078 39.7517L21.5757 40.2517C21.5757 40.2517 21.5493 40.298 21.5493 40.3165V41.6314C21.5493 41.687 21.5053 41.7332 21.4524 41.7332H20.1651C20.1122 41.7332 20.0681 41.687 20.0681 41.6314V36.2423C20.0681 36.1867 20.1122 36.1404 20.1651 36.1404" fill="#E65424"/>
<path d="M25.8863 36.1404H27.1735C27.2264 36.1404 27.2705 36.1867 27.2705 36.2423V40.2795C27.2705 40.335 27.3146 40.3813 27.3675 40.3813H29.7569C29.8098 40.3813 29.8539 40.4277 29.8539 40.4832V41.6407C29.8539 41.6962 29.8098 41.7425 29.7569 41.7425H25.8952C25.8423 41.7425 25.7982 41.6962 25.7982 41.6407V36.2515C25.7982 36.196 25.8423 36.1497 25.8952 36.1497" fill="#E65424"/>
<path d="M33.8727 39.3897L33.4143 38.186C33.379 38.1027 33.2732 38.1027 33.238 38.186L32.7795 39.3897C32.753 39.4546 32.7971 39.5287 32.8676 39.5287H33.7846C33.8551 39.5287 33.8991 39.4546 33.8727 39.3897ZM32.6913 36.1118H33.9874C33.9874 36.1118 34.0579 36.1396 34.0755 36.1766L36.262 41.6121C36.2885 41.6769 36.2444 41.7509 36.1739 41.7509H34.7985C34.7985 41.7509 34.728 41.7231 34.7103 41.6861L34.3753 40.8064C34.3753 40.8064 34.3224 40.7416 34.2871 40.7416H32.3562C32.3562 40.7416 32.2858 40.7694 32.2681 40.8064L31.9331 41.6861C31.9331 41.6861 31.8802 41.7509 31.8449 41.7509H30.5136C30.443 41.7509 30.3989 41.6769 30.4254 41.6121L32.6031 36.1766C32.6031 36.1766 32.6472 36.1118 32.6913 36.1118Z" fill="#E65424"/>
<path d="M36.931 36.1405H38.1653C38.1653 36.1405 38.2182 36.159 38.2358 36.1775L40.2284 38.8629C40.2813 38.9369 40.3959 38.8999 40.3959 38.798V36.233C40.3959 36.1775 40.44 36.1312 40.4929 36.1312H41.7625C41.8153 36.1312 41.8595 36.1775 41.8595 36.233V41.6222C41.8595 41.6778 41.8153 41.724 41.7625 41.724H40.6163C40.6163 41.724 40.5634 41.7055 40.5458 41.687L38.465 38.8906C38.4121 38.8165 38.2975 38.8536 38.2975 38.9554V41.6315C38.2975 41.687 38.2534 41.7333 38.2005 41.7333H36.931C36.8781 41.7333 36.834 41.687 36.834 41.6315V36.2423C36.834 36.1868 36.8781 36.1405 36.931 36.1405Z" fill="#E65424"/>
<path d="M44.136 37.6128V40.261C44.136 40.3166 44.1801 40.3629 44.233 40.3629H44.7355C45.6261 40.3629 46.2079 39.8536 46.2079 38.9462V38.9277C46.2079 38.0295 45.6261 37.5017 44.7355 37.5017H44.233C44.1801 37.5017 44.136 37.548 44.136 37.6035M42.6637 36.233C42.6637 36.1775 42.7077 36.1312 42.7606 36.1312H44.7268C46.6223 36.1312 47.7244 37.2794 47.7244 38.8999V38.9184C47.7244 40.5295 46.6047 41.7333 44.7003 41.7333H42.7606C42.7077 41.7333 42.6637 41.687 42.6637 41.6315V36.2423V36.233Z" fill="#E65424"/>
<path d="M3.64868 43.5945H5.23569C5.27978 43.5945 5.32386 43.6408 5.32386 43.687V44.113C5.32386 44.1686 5.27978 44.2056 5.23569 44.2056H3.64868C3.6046 44.2056 3.56052 44.1593 3.56052 44.113V43.687C3.56052 43.6408 3.6046 43.5945 3.64868 43.5945Z" fill="#E65424"/>
</g>
<defs>
<clipPath id="clip0_33_390">
<rect width="50" height="50" fill="white"/>
</clipPath>
</defs>
</svg>
