<svg width="574" height="734" viewBox="0 0 574 734" fill="none" xmlns="http://www.w3.org/2000/svg">
<path fill-rule="evenodd" clip-rule="evenodd" d="M3 20C3 8.95428 11.9543 0 23 0H30.3936V12.3934C30.3936 20.6777 37.1093 27.3934 45.3936 27.3934H70.1804C78.4647 27.3934 85.1804 20.6777 85.1804 12.3934V0H477.82V12.3934C477.82 20.6777 484.536 27.3934 492.82 27.3934H517.607C525.891 27.3934 532.607 20.6777 532.607 12.3934V0H540C551.046 0 560 8.95431 560 20V404.598C560 415.644 551.046 424.598 540 424.598H532.607V406.754C532.607 398.47 525.891 391.754 517.607 391.754H492.82C484.536 391.754 477.82 398.47 477.82 406.754V414.892C462.762 406.033 450.968 393.22 445.861 385.791L385.696 302.336C392.085 288.091 395.639 272.296 395.639 255.672C395.639 192.635 344.537 141.533 281.5 141.533C218.463 141.533 167.361 192.635 167.361 255.672C167.361 285.205 178.577 312.118 196.982 332.384L165.078 376.66L130.836 356.115C129.532 357.745 126.997 361.92 123.377 367.883C118.549 375.834 111.791 386.965 103.443 399.488C98.8382 406.394 92.3744 411.442 85.1804 415.116V406.754C85.1804 398.47 78.4647 391.754 70.1804 391.754H45.3936C37.1093 391.754 30.3936 398.47 30.3936 406.754V424.598H23C11.9543 424.598 3 415.644 3 404.598V20ZM196.982 332.384C217.863 355.375 247.996 369.811 281.5 369.811C327.913 369.811 367.856 342.109 385.696 302.336L375.094 287.631L349.984 310.459L276.934 221.43L196.982 332.384ZM30.3936 92.3934C30.3936 84.1092 37.1093 77.3934 45.3936 77.3934H70.1804C78.4647 77.3934 85.1804 84.1092 85.1804 92.3934V117.18C85.1804 125.465 78.4647 132.18 70.1804 132.18H45.3936C37.1093 132.18 30.3936 125.465 30.3936 117.18V92.3934ZM45.3936 182.18C37.1093 182.18 30.3936 188.896 30.3936 197.18V221.967C30.3936 230.251 37.1093 236.967 45.3936 236.967H70.1804C78.4647 236.967 85.1804 230.251 85.1804 221.967V197.18C85.1804 188.896 78.4647 182.18 70.1804 182.18H45.3936ZM30.3936 301.967C30.3936 293.683 37.1093 286.967 45.3936 286.967H70.1804C78.4647 286.967 85.1804 293.683 85.1804 301.967V326.754C85.1804 335.038 78.4647 341.754 70.1804 341.754H45.3936C37.1093 341.754 30.3936 335.038 30.3936 326.754V301.967ZM492.82 77.3934C484.536 77.3934 477.82 84.1092 477.82 92.3934V117.18C477.82 125.465 484.536 132.18 492.82 132.18H517.607C525.891 132.18 532.607 125.465 532.607 117.18V92.3934C532.607 84.1092 525.891 77.3934 517.607 77.3934H492.82ZM477.82 197.18C477.82 188.896 484.536 182.18 492.82 182.18H517.607C525.891 182.18 532.607 188.896 532.607 197.18V221.967C532.607 230.251 525.891 236.967 517.607 236.967H492.82C484.536 236.967 477.82 230.251 477.82 221.967V197.18ZM492.82 286.967C484.536 286.967 477.82 293.683 477.82 301.967V326.754C477.82 335.038 484.536 341.754 492.82 341.754H517.607C525.891 341.754 532.607 335.038 532.607 326.754V301.967C532.607 293.683 525.891 286.967 517.607 286.967H492.82Z" fill="#EAEAEA"/>
<path d="M26.862 554V532.825H69.575V554H26.862ZM26.862 490.475V469.3H69.575V490.475H26.862ZM26.862 520.725V500.155H67.155V520.725H26.862ZM8.47 469.3H33.88V554H8.47V469.3ZM123.997 510.682L140.332 469.3H171.792L123.997 560.05L76.2016 469.3H107.662L123.997 510.682ZM198.082 554V532.825H240.795V554H198.082ZM198.082 490.475V469.3H240.795V490.475H198.082ZM198.082 520.725V500.155H238.375V520.725H198.082ZM179.69 469.3H205.1V554H179.69V469.3ZM281.301 517.7H308.526L332.726 554H301.871L281.301 517.7ZM256.496 469.3H283.116V554H256.496V469.3ZM273.678 491.685V469.3H292.191C300.5 469.3 307.236 470.55 312.398 473.051C317.642 475.552 321.473 478.98 323.893 483.336C326.394 487.692 327.644 492.693 327.644 498.34C327.644 503.906 326.394 508.907 323.893 513.344C321.473 517.7 317.642 521.128 312.398 523.629C307.236 526.13 300.5 527.38 292.191 527.38H273.678V507.415H289.771C292.03 507.415 293.885 507.133 295.337 506.568C296.789 505.923 297.878 504.995 298.604 503.785C299.411 502.575 299.814 501.163 299.814 499.55C299.814 497.856 299.411 496.444 298.604 495.315C297.878 494.105 296.789 493.218 295.337 492.653C293.885 492.008 292.03 491.685 289.771 491.685H273.678ZM359.612 554V532.825H402.325V554H359.612ZM359.612 490.475V469.3H402.325V490.475H359.612ZM359.612 520.725V500.155H399.905V520.725H359.612ZM341.22 469.3H366.63V554H341.22V469.3ZM431.095 521.814C432.708 524.637 434.563 527.098 436.661 529.195C438.758 531.212 441.017 532.744 443.437 533.793C445.937 534.842 448.438 535.366 450.939 535.366C453.036 535.366 454.811 534.963 456.263 534.156C457.715 533.269 458.441 531.897 458.441 530.042C458.441 528.913 458.037 527.945 457.231 527.138C456.505 526.331 455.012 525.404 452.754 524.355C450.495 523.306 447.067 521.895 442.469 520.12C440.452 519.313 438.113 518.224 435.451 516.853C432.869 515.482 430.369 513.707 427.949 511.529C425.609 509.351 423.633 506.689 422.02 503.543C420.487 500.397 419.721 496.686 419.721 492.411C419.721 486.845 421.213 482.166 424.198 478.375C427.182 474.584 431.135 471.72 436.056 469.784C440.976 467.848 446.381 466.88 452.27 466.88C458.642 466.88 464.087 467.848 468.605 469.784C473.203 471.72 476.954 474.14 479.858 477.044C482.842 479.948 485.101 482.852 486.634 485.756L466.911 496.646C465.62 494.629 464.168 493.056 462.555 491.927C461.022 490.717 459.449 489.83 457.836 489.265C456.222 488.7 454.649 488.418 453.117 488.418C451.261 488.418 449.729 488.741 448.519 489.386C447.389 490.031 446.825 491.04 446.825 492.411C446.825 494.105 447.631 495.517 449.245 496.646C450.939 497.695 453.157 498.703 455.9 499.671C458.642 500.558 461.667 501.607 464.975 502.817C468.363 504.027 471.388 505.479 474.05 507.173C476.712 508.786 478.97 510.682 480.826 512.86C482.762 515.038 484.214 517.498 485.182 520.241C486.15 522.903 486.634 525.888 486.634 529.195C486.634 533.874 485.666 538.028 483.73 541.658C481.794 545.207 479.172 548.152 475.865 550.491C472.638 552.83 468.968 554.605 464.854 555.815C460.74 557.025 456.505 557.63 452.149 557.63C446.099 557.63 440.452 556.622 435.209 554.605C430.046 552.669 425.569 549.967 421.778 546.498C417.986 543.029 415.123 539.157 413.187 534.882L431.095 521.814ZM490.854 492.895V469.3H565.874V492.895H541.674V554H515.054V492.895H490.854ZM8.47 617.3H35.09V702H8.47V617.3ZM25.652 638.475V617.3H41.745C50.0537 617.3 56.7893 618.47 61.952 620.809C67.1953 623.148 71.027 626.496 73.447 630.852C75.9477 635.127 77.198 640.29 77.198 646.34C77.198 652.309 75.9477 657.472 73.447 661.828C71.027 666.184 67.1953 669.532 61.952 671.871C56.7893 674.21 50.0537 675.38 41.745 675.38H25.652V654.205H41.745C45.0523 654.205 47.553 653.519 49.247 652.148C50.941 650.777 51.788 648.841 51.788 646.34C51.788 643.839 50.941 641.903 49.247 640.532C47.553 639.161 45.0523 638.475 41.745 638.475H25.652ZM112.647 659.65C112.647 663.764 113.414 667.394 114.946 670.54C116.479 673.686 118.657 676.146 121.48 677.921C124.304 679.615 127.692 680.462 131.644 680.462C135.597 680.462 138.985 679.615 141.808 677.921C144.632 676.146 146.81 673.686 148.342 670.54C149.875 667.394 150.641 663.764 150.641 659.65C150.641 655.455 149.915 651.825 148.463 648.76C147.011 645.614 144.874 643.194 142.05 641.5C139.308 639.725 135.839 638.838 131.644 638.838C127.692 638.838 124.304 639.725 121.48 641.5C118.657 643.194 116.479 645.614 114.946 648.76C113.414 651.825 112.647 655.455 112.647 659.65ZM84.4542 659.65C84.4542 652.874 85.6642 646.743 88.0842 641.258C90.5042 635.773 93.8519 631.054 98.1272 627.101C102.403 623.148 107.404 620.123 113.131 618.026C118.859 615.929 125.03 614.88 131.644 614.88C138.42 614.88 144.672 615.929 150.399 618.026C156.127 620.123 161.128 623.148 165.403 627.101C169.679 631.054 172.986 635.773 175.325 641.258C177.665 646.743 178.834 652.874 178.834 659.65C178.834 666.426 177.665 672.637 175.325 678.284C173.067 683.85 169.84 688.69 165.645 692.804C161.451 696.918 156.449 700.064 150.641 702.242C144.914 704.501 138.582 705.63 131.644 705.63C124.707 705.63 118.334 704.501 112.526 702.242C106.799 700.064 101.838 696.918 97.6432 692.804C93.4486 688.69 90.1816 683.85 87.8422 678.284C85.5836 672.637 84.4542 666.426 84.4542 659.65ZM203.983 669.814C205.597 672.637 207.452 675.098 209.549 677.195C211.647 679.212 213.905 680.744 216.325 681.793C218.826 682.842 221.327 683.366 223.827 683.366C225.925 683.366 227.699 682.963 229.151 682.156C230.603 681.269 231.329 679.897 231.329 678.042C231.329 676.913 230.926 675.945 230.119 675.138C229.393 674.331 227.901 673.404 225.642 672.355C223.384 671.306 219.955 669.895 215.357 668.12C213.341 667.313 211.001 666.224 208.339 664.853C205.758 663.482 203.257 661.707 200.837 659.529C198.498 657.351 196.522 654.689 194.908 651.543C193.376 648.397 192.609 644.686 192.609 640.411C192.609 634.845 194.102 630.166 197.086 626.375C200.071 622.584 204.024 619.72 208.944 617.784C213.865 615.848 219.27 614.88 225.158 614.88C231.531 614.88 236.976 615.848 241.493 617.784C246.091 619.72 249.842 622.14 252.746 625.044C255.731 627.948 257.99 630.852 259.522 633.756L239.799 644.646C238.509 642.629 237.057 641.056 235.443 639.927C233.911 638.717 232.338 637.83 230.724 637.265C229.111 636.7 227.538 636.418 226.005 636.418C224.15 636.418 222.617 636.741 221.407 637.386C220.278 638.031 219.713 639.04 219.713 640.411C219.713 642.105 220.52 643.517 222.133 644.646C223.827 645.695 226.046 646.703 228.788 647.671C231.531 648.558 234.556 649.607 237.863 650.817C241.251 652.027 244.276 653.479 246.938 655.173C249.6 656.786 251.859 658.682 253.714 660.86C255.65 663.038 257.102 665.498 258.07 668.241C259.038 670.903 259.522 673.888 259.522 677.195C259.522 681.874 258.554 686.028 256.618 689.658C254.682 693.207 252.061 696.152 248.753 698.491C245.527 700.83 241.856 702.605 237.742 703.815C233.628 705.025 229.393 705.63 225.037 705.63C218.987 705.63 213.341 704.622 208.097 702.605C202.935 700.669 198.458 697.967 194.666 694.498C190.875 691.029 188.011 687.157 186.075 682.882L203.983 669.814ZM263.742 640.895V617.3H338.762V640.895H314.562V702H287.942V640.895H263.742Z" fill="#EAEAEA"/>
<path d="M555 680L545 680L545 700L555 700L555 680ZM564 700C569.523 700 574 695.523 574 690C574 684.477 569.523 680 564 680L564 700ZM555 700L564 700L564 680L555 680L555 700Z" fill="#EAEAEA"/>
<path d="M356 680C350.477 680 346 684.477 346 690C346 695.523 350.477 700 356 700L356 680ZM518 700L528 700L528 680L518 680L518 700ZM356 700L518 700L518 680L356 680L356 700Z" fill="#EAEAEA"/>
</svg>
