<svg width="1080" height="1920" viewBox="0 0 1080 1920" fill="none" xmlns="http://www.w3.org/2000/svg">
<rect width="1080" height="1920" fill="#EAEAEA"/>
<path opacity="0.3" d="M201.333 915.667C197.837 915.667 195 918.504 195 922V941.735L198.154 943.565C204.025 946.966 207.667 953.261 207.667 960C207.667 966.739 204.025 973.034 198.154 976.435L195 978.265V998C195 1001.5 197.837 1004.33 201.333 1004.33H302.667C306.163 1004.33 309 1001.5 309 998V981.913V978.265L305.846 976.435C299.975 973.034 296.333 966.739 296.333 960C296.333 953.261 299.975 946.966 305.846 943.565L309 941.735V922C309 918.504 306.163 915.667 302.667 915.667H201.333Z" fill="black"/>
<path d="M302.667 922V938.068C295.098 942.457 290 950.646 290 960C290 969.354 295.098 977.55 302.667 981.932V998H201.333V981.932C208.902 977.55 214 969.361 214 960C214 950.639 208.902 942.45 201.333 938.068V922H302.667ZM302.667 909.333H201.333C194.367 909.333 188.667 915.033 188.667 922V947.333C195.633 947.333 201.333 953.033 201.333 960C201.333 966.967 195.633 972.667 188.667 972.667V998C188.667 1004.97 194.367 1010.67 201.333 1010.67H302.667C309.633 1010.67 315.333 1004.97 315.333 998V972.667C308.367 972.667 302.667 966.967 302.667 960C302.667 953.033 308.367 947.333 315.333 947.333V922C315.333 915.033 309.633 909.333 302.667 909.333Z" fill="black"/>
<path d="M266.567 965.067L271.633 986.6L252 975.2L232.367 987.233L237.433 965.067L220.333 949.867L243.133 947.967L252 927.067L260.867 947.967L283.667 949.867L266.567 965.067Z" fill="black"/>
<path d="M463 1004.33H393.333C386.367 1004.33 380.667 998.633 380.667 991.667V953.667C380.667 946.7 386.367 941 393.333 941H463C469.967 941 475.667 946.7 475.667 953.667V991.667C475.667 998.633 469.967 1004.33 463 1004.33ZM393.333 953.667V991.667H463V953.667H393.333Z" fill="black"/>
<path d="M507.333 1001.17L463 981.533V963.8L507.333 944.167V1001.17ZM475.667 973.3L494.667 982.167V963.8L475.667 972.033V973.3ZM447.167 947.333C431.333 947.333 418.667 934.667 418.667 918.833C418.667 903 431.333 890.333 447.167 890.333C463 890.333 475.667 903 475.667 918.833C475.667 934.667 463 947.333 447.167 947.333ZM447.167 903C438.3 903 431.333 909.967 431.333 918.833C431.333 927.7 438.3 934.667 447.167 934.667C456.033 934.667 463 927.7 463 918.833C463 909.967 456.033 903 447.167 903Z" fill="black"/>
<path d="M402.833 947.333C390.8 947.333 380.667 937.2 380.667 925.167C380.667 913.133 390.8 903 402.833 903C414.867 903 425 913.133 425 925.167C425 937.2 414.867 947.333 402.833 947.333ZM402.833 915.667C397.767 915.667 393.333 920.1 393.333 925.167C393.333 930.233 397.767 934.667 402.833 934.667C407.9 934.667 412.333 930.233 412.333 925.167C412.333 920.1 407.9 915.667 402.833 915.667Z" fill="black"/>
<path opacity="0.3" d="M393.333 947.333H463C466.8 947.333 469.333 949.867 469.333 953.667V991.667C469.333 995.467 466.8 998 463 998H393.333C389.533 998 387 995.467 387 991.667V953.667C387 949.867 389.533 947.333 393.333 947.333ZM469.333 977.733V968.233L501 953.667V991.667L469.333 977.733ZM447.167 896.667C444.256 896.667 441.373 897.24 438.684 898.354C435.994 899.468 433.551 901.101 431.492 903.159C429.434 905.217 427.801 907.661 426.687 910.351C425.573 913.04 425 915.922 425 918.833C425 921.744 425.573 924.627 426.687 927.316C427.801 930.006 429.434 932.449 431.492 934.508C433.551 936.566 435.994 938.199 438.684 939.313C441.373 940.427 444.256 941 447.167 941C450.078 941 452.96 940.427 455.649 939.313C458.339 938.199 460.783 936.566 462.841 934.508C464.899 932.449 466.532 930.006 467.646 927.316C468.76 924.627 469.333 921.744 469.333 918.833C469.333 915.922 468.76 913.04 467.646 910.351C466.532 907.661 464.899 905.217 462.841 903.159C460.783 901.101 458.339 899.468 455.649 898.354C452.96 897.24 450.078 896.667 447.167 896.667ZM402.833 909.333C398.634 909.333 394.607 911.001 391.637 913.971C388.668 916.94 387 920.967 387 925.167C387 929.366 388.668 933.393 391.637 936.363C394.607 939.332 398.634 941 402.833 941C407.033 941 411.06 939.332 414.029 936.363C416.999 933.393 418.667 929.366 418.667 925.167C418.667 920.967 416.999 916.94 414.029 913.971C411.06 911.001 407.033 909.333 402.833 909.333Z" fill="black"/>
<path d="M438.933 1027.13L425 1008.77L411.067 1027.13L400.933 1019.53L419.933 994.2C422.467 991.033 427.533 991.033 430.067 994.2L449.067 1019.53L438.933 1027.13Z" fill="black"/>
<path d="M636 1023.33C601.167 1023.33 572.667 994.833 572.667 960C572.667 925.167 601.167 896.667 636 896.667C670.833 896.667 699.333 925.167 699.333 960C699.333 994.833 670.833 1023.33 636 1023.33ZM636 909.333C608.133 909.333 585.333 932.133 585.333 960C585.333 987.867 608.133 1010.67 636 1010.67C663.867 1010.67 686.667 987.867 686.667 960C686.667 932.133 663.867 909.333 636 909.333Z" fill="black"/>
<path opacity="0.3" d="M636 903C628.515 903 621.103 904.474 614.187 907.339C607.271 910.203 600.988 914.402 595.695 919.695C590.402 924.988 586.203 931.271 583.339 938.187C580.474 945.103 579 952.515 579 960C579 967.485 580.474 974.897 583.339 981.813C586.203 988.729 590.402 995.012 595.695 1000.31C600.988 1005.6 607.271 1009.8 614.187 1012.66C621.103 1015.53 628.515 1017 636 1017C643.485 1017 650.897 1015.53 657.813 1012.66C664.729 1009.8 671.012 1005.6 676.305 1000.31C681.598 995.012 685.797 988.729 688.661 981.813C691.526 974.897 693 967.485 693 960C693 952.515 691.526 945.103 688.661 938.187C685.797 931.271 681.598 924.988 676.305 919.695C671.012 914.402 664.729 910.203 657.813 907.339C650.897 904.474 643.485 903 636 903Z" fill="black"/>
<path d="M636 915.667C632.641 915.667 629.419 917.001 627.043 919.377C624.668 921.752 623.333 924.974 623.333 928.333C623.333 931.693 624.668 934.915 627.043 937.29C629.419 939.665 632.641 941 636 941C639.359 941 642.581 939.665 644.957 937.29C647.332 934.915 648.667 931.693 648.667 928.333C648.667 924.974 647.332 921.752 644.957 919.377C642.581 917.001 639.359 915.667 636 915.667ZM604.333 947.333C600.974 947.333 597.752 948.668 595.377 951.043C593.001 953.419 591.667 956.641 591.667 960C591.667 963.359 593.001 966.581 595.377 968.957C597.752 971.332 600.974 972.667 604.333 972.667C607.693 972.667 610.915 971.332 613.29 968.957C615.666 966.581 617 963.359 617 960C617 956.641 615.666 953.419 613.29 951.043C610.915 948.668 607.693 947.333 604.333 947.333ZM667.667 947.333C664.307 947.333 661.086 948.668 658.71 951.043C656.335 953.419 655 956.641 655 960C655 963.359 656.335 966.581 658.71 968.957C661.086 971.332 664.307 972.667 667.667 972.667C671.026 972.667 674.248 971.332 676.623 968.957C678.999 966.581 680.333 963.359 680.333 960C680.333 956.641 678.999 953.419 676.623 951.043C674.248 948.668 671.026 947.333 667.667 947.333ZM636 979C632.641 979 629.419 980.335 627.043 982.71C624.668 985.085 623.333 988.307 623.333 991.667C623.333 995.026 624.668 998.248 627.043 1000.62C629.419 1003 632.641 1004.33 636 1004.33C639.359 1004.33 642.581 1003 644.957 1000.62C647.332 998.248 648.667 995.026 648.667 991.667C648.667 988.307 647.332 985.085 644.957 982.71C642.581 980.335 639.359 979 636 979ZM636 953.667C634.32 953.667 632.709 954.334 631.522 955.522C630.334 956.709 629.667 958.32 629.667 960C629.667 961.68 630.334 963.291 631.522 964.478C632.709 965.666 634.32 966.333 636 966.333C637.68 966.333 639.291 965.666 640.478 964.478C641.666 963.291 642.333 961.68 642.333 960C642.333 958.32 641.666 956.709 640.478 955.522C639.291 954.334 637.68 953.667 636 953.667ZM686.667 960H699.333V1023.33H686.667V960Z" fill="black"/>
<path d="M790 979H802.667V991.667H790V979ZM790 953.667H802.667V966.333H790V953.667ZM853.333 979H866V991.667H853.333V979ZM853.333 953.667H866V966.333H853.333V953.667ZM790 928.333H802.667V941H790V928.333ZM853.333 928.333H866V941H853.333V928.333Z" fill="black"/>
<path d="M878.667 1017H777.333C770.367 1017 764.667 1011.3 764.667 1004.33V915.667C764.667 908.7 770.367 903 777.333 903H878.667C885.633 903 891.333 908.7 891.333 915.667V1004.33C891.333 1011.3 885.633 1017 878.667 1017ZM777.333 915.667V1004.33H878.667V915.667H777.333Z" fill="black"/>
<path opacity="0.3" d="M771 909.333H885V1010.67H771V909.333Z" fill="black"/>
</svg>
